<?xml version="1.0" encoding="UTF-8"?><svg id="Layer_2" xmlns="http://www.w3.org/2000/svg" viewBox="0 0 313.49 78.65"><defs><style>.cls-1{fill:#ea0029;}.cls-2{fill:#fff;}.cls-3{fill:#9d9fa2;}</style></defs><g id="Layer_1-2"><g><path class="cls-2" d="M313.41,39.15c.14-14.78-3.11-23.06-5.93-27.12,.97-1.27,1.55-2.05,1.6-2.1,.47-.49,1.1-.8,1.78-.87,.23-1.45,.57-2.87,1-4.27-1.19,.85-2.45,1.58-3.77,2.2,.13,.67,0,1.36-.36,1.94l-1.24,1.64c-1.34-1.6-2.96-2.94-4.78-3.97-.53-.3-1.07-.58-1.62-.83,.04-.77-.23-1.51-.75-2.07-.07-.52-.4-.98-.88-1.21h0c-.56-.09-1.13,.07-1.57,.43-.81,.12-1.55,.52-2.1,1.13-1.96-.4-3.94-.66-5.94-.78-.24-1-.92-1.85-1.85-2.3-.3-.54-.83-.9-1.44-.98h0c-.61,.08-1.15,.44-1.45,.98-.93,.46-1.6,1.31-1.85,2.32-1.99,.11-3.97,.37-5.93,.78-.55-.61-1.3-1-2.11-1.13-.43-.36-1-.52-1.55-.43h0c-.48,.22-.81,.68-.87,1.21-.53,.56-.8,1.31-.75,2.07-.59,.27-1.13,.54-1.63,.83-1.81,.98-3.4,2.3-4.68,3.91l-1.13-1.49c-.37-.58-.5-1.28-.36-1.95-1.32-.61-2.59-1.34-3.77-2.19,.43,1.4,.77,2.83,1.01,4.27,.67,.07,1.3,.38,1.77,.87,0,0,.56,.72,1.42,1.85-2.84,4.03-6.13,12.39-5.99,27.26,0,1.37-.57,14.26,3.63,22.95,1.04,1.98,2.39,3.78,4.01,5.33,1.88,1.79,4.18,3.07,6.69,3.73l.32,.08c2.28,.73,4.75,.64,6.97-.26l-.16,.39c-.06,.11-.11,.23-.15,.35-.59,1.59-.19,3.24,1.96,3.5,.67,.02,1.34,.16,1.96,.43,.66,.33,1.25,.77,1.75,1.31,.44,.47,.82,1,1.13,1.57h0c.31-.57,.69-1.09,1.13-1.57,.5-.54,1.1-.98,1.76-1.31,.62-.26,1.28-.41,1.95-.43,2.16-.26,2.56-1.9,1.97-3.5l-.15-.36-.16-.38c1.5,.87,6.1,1.54,10.52-1.26,3.01-1.81,5.45-4.44,7.01-7.59,4.2-8.69,3.64-21.83,3.62-23.02m-19.52-11.9c-.07,.12-.18,.22-.3,.29-.22,.13-.47,.19-.72,.17-.28,.01-.55-.12-.7-.36-.57-.84-1.03-1.74-1.37-2.69-.46-1.13-.38-.91-1.06-2.56-.33-.86-.74-1.68-1.23-2.46-.48-.6-1.07-1.1-1.74-1.48-.5-.19-1.03-.31-1.57-.34-.87-.05-1.74,.02-2.59,.21-.49,.1-.94,.34-1.3,.69-.1,.14-.24,.26-.39,.34-.4,.16-.78,.37-1.13,.64-.69,.41-.92,1.3-.51,1.99,.06,.09,.12,.18,.2,.26h0c0-.28,0-.54,.06-.52,.39,.21,.83,.29,1.27,.24,.54-.08,.88,.74,.88,.74l.09-.24c.07,.23,.18,.44,.32,.63,0,0,.08-.09,.08-.12,.17,.2,.43,.33,.45,.66-.03,.37-.22,.71-.52,.94-.15,.14-1,.83-1.9,1.77-.47,.48-.71,.77-1.19,1.3-.17,.24-.42,.4-.71,.44h-.11c-.23,0-.45-.1-.6-.27l-6.92-9.15c4.01-3.92,10.66-4.51,12.31-4.44,.39,0,.82,.34,.34,.98,.78,.16,1.59,0,2.25-.44,.66,.44,1.47,.6,2.25,.44-.5-.64-.06-.96,.34-.98,1.64-.12,7.95,.18,12.39,4.51-2.15,2.86-5.04,6.47-6.59,8.72"/><path class="cls-1" d="M312.52,35.11c-1.93,1.58-4,2.98-6.2,4.18l-1,.54v-.72c0-.08,.28-9.85-4.51-18.27-.29,.41-1.3,1.68-2.32,2.97,.66-.08,1.32,.16,1.78,.64,1.51,1.67,2.7,3.59,3.52,5.69,.58,1.71,.84,3.51,.79,5.32h0s-.59,9.95-1.71,19.47c-1.04,8.66-1.61,9.79-1.61,9.79-.55-.7-.93-1.52-1.13-2.39l-.1,.09c-.48-.79-.81-1.67-.97-2.58-.36-2.34-.51-4.72-.44-7.09h0c-.03-.47-.16-.92-.38-1.33-.19-.39-.34-.8-.44-1.22h0c-.38-1.61-1.24-3.06-2.48-4.16-.72-.88-1.31-1.85-1.77-2.9l-.06,.06c-.37,.29-.64,.68-.79,1.13,.19,1.14,.19,2.31,0,3.45-.09-.06-.24-.2-.33-.27,.11,1.04-.38,2.25-.07,3.17l-.61-.08,.06,.15c.08,.11,.19,.2,.32,.26l.2,.1,.62,.21c.29-.64,.18-1.4-.27-1.94-.28-.35,.07-.86,.66-.6,.93,.4,1.78,.97,2.5,1.68,1.27,1.21,1.64,2.37,1.37,2.59-.18,.13-.43,.13-.62,0,.01,.04,.01,.09,0,.14-.09,.24-.29,.42-.54,.47h0c-.12,.19-.35,.26-.73,.25-.26-.02-.51-.09-.74-.21-.09-.05-.18-.11-.25-.19l-.23,.19c1.57,1.91,3.01,3.93,4.3,6.04,.58,1.02,1.06,2.1,1.44,3.21-.4,.1-.82,.1-1.22,0,.23,.57,.34,1.18,.33,1.79-.68,.03-1.36-.13-1.96-.46,0,.12,0,.24,.07,.35,.62,.44,1.31,.95,1.61,1.13-3.02,1.41-7.39,.75-7.47,.74l-.56-.08c0,.08-.07,.18-.11,.28,.3,.7,.98,2.32,1.13,2.66,1.98,1.03,4.25,1.38,6.44,.99,.56-.09,1.1-.24,1.63-.44,1.92-.8,3.68-1.95,5.18-3.38,1.55-1.44,2.86-3.12,3.89-4.98,3.38-6.51,3.89-16.19,3.89-20.1v-2.03c0-1.32-.09-3.46-.14-4.51"/><path class="cls-1" d="M279.98,69.38c.14-.36,.73-1.8,1.05-2.53,0-.14-.09-.26-.12-.38-.42,.07-.83,.14-1.25,.17s-4.44,.66-7.46-.74c.37-.26,1.06-.82,1.99-1.42v-.19c-.6,.33-1.28,.49-1.96,.45,0-.61,.1-1.22,.33-1.79-.38,.09-.78,.1-1.16,.01,.38-1.11,.86-2.19,1.44-3.21,.97-1.64,2.06-3.21,3.28-4.68,.11-.39,.31-.75,.59-1.05l.18-.2-.36-.29c-.08,.09-.18,.17-.29,.24-.23,.12-.48,.2-.74,.21-.27,.06-.56-.04-.74-.25h0c-.25-.05-.46-.23-.54-.47-.01-.04-.01-.09,0-.14-.18,.09-.4,.06-.55-.08-.27-.23,.1-1.4,1.37-2.6,.73-.7,1.57-1.27,2.5-1.67,.6-.27,.95,.25,.65,.6-.45,.54-.56,1.3-.26,1.94,.19-.06,.38-.12,.56-.2,.2-.06,.37-.18,.5-.35,.03-.04,.05-.08,.07-.12h-.53c.27-.66-.15-2.25,.12-3.38-.11,.08-.23,.15-.36,.21-.17-1.06-.21-2.14-.12-3.21-.13-.36-.36-.67-.65-.91-.43,1-1,1.93-1.69,2.76-1.26,1.11-2.14,2.59-2.51,4.24h0c-.1,.42-.25,.83-.44,1.22-.23,.41-.36,.86-.38,1.33h0c.07,2.37-.08,4.74-.44,7.09-.16,.91-.49,1.78-.97,2.57l-.09-.09c-.2,.87-.58,1.69-1.13,2.4,0,0-.57-1.13-1.6-9.79-1.13-9.53-1.71-19.48-1.71-19.48h0c-.05-1.81,.22-3.61,.8-5.33,.82-2.08,2.01-3.99,3.52-5.63,.5-.53,1.24-.76,1.95-.61l-.38-.53c-.65-.87-1.41-1.83-2.06-2.67-4.65,8.2-4.51,18.03-4.51,18.03v1.04l-.81-.43c-2.29-1.22-4.45-2.67-6.44-4.33,0,.99-.16,4.37-.16,4.37v2.06c0,3.91,.71,13.52,3.9,20.1,.97,1.88,2.25,3.59,3.79,5.05,1.6,1.51,3.53,2.65,5.63,3.31l.48,.16c2.56,.81,5.33,.56,7.71-.69l.03-.09Z"/><path class="cls-1" d="M281.96,71.86c.08-1.47,.24-2.93,.48-4.38-.21,.22-.45,.4-.72,.54-.06,0-.12-.07-.2-.16-.72,1.78-1.75,4.28-1.76,4.3,.61-.52,1.47-.64,2.2-.3"/><path class="cls-1" d="M289.03,73.01c-.1-2.12-.35-4.23-.73-6.32l-.1-.15-.18-.26c-.11,.38-.25,.76-.41,1.13-.14,.34-.35,.66-.61,.92-.65-.46-1.17-1.1-1.49-1.84-.31,.73-.82,1.35-1.46,1.8-.26-.26-.47-.58-.61-.92-.09-.21-.17-.42-.24-.62-.35,2.06-.58,4.13-.66,6.22-1.8-1.19-2.91,0-2.53,.83l.12,.2c.21,.29,.54,.46,.9,.46,.78,.02,1.54,.2,2.25,.52,1,.48,1.87,1.2,2.53,2.08,.66-.86,1.51-1.56,2.48-2.05,.71-.32,1.48-.5,2.25-.52,.35-.02,.68-.18,.89-.46,.05-.06,.09-.13,.12-.2,.37-.83-.72-2.03-2.53-.83"/><path class="cls-1" d="M289.68,68.02c-.23-.11-.43-.25-.61-.43,.27,1.41,.45,2.84,.54,4.27,.73-.34,1.58-.22,2.19,.3l-1.77-4.51c-.09,.15-.21,.29-.35,.39"/><path class="cls-3" d="M298.15,37.13c-.1,.56-.44,1.05-.94,1.33-.3-.96-.48-1.72,.87-4.51-.92,2.76-.53,3.68-.53,3.68,.23-.11,.44-.27,.6-.47m-1.5-1.93s-.32-.63,.51-3.04c-1.52,2.25-.86,3.89-.86,3.89,.5-.28,.87-.75,1-1.31-.17,.19-.4,.34-.65,.41m5.44-4.1c-.25,2.42-.45,2.93-.71,3.38-.18-.18-.31-.4-.39-.64-.09,.52,.06,1.06,.41,1.46,.51-.63,.87-1.97,.7-4.17m-.48-1.62c-.38,2.72-.81,3.38-1.13,3.8-.2-.25-.34-.53-.42-.83-.13,.59,0,1.2,.38,1.67,.93-1.36,1.33-3,1.13-4.63m-2.02,2.61c-.16-.47-.22-.97-.19-1.46-.36,.76-.32,1.65,.11,2.38,.98-1.3,1.48-2.89,1.42-4.51-.14,1.29-.6,2.53-1.34,3.59m-.97-1.54c-.12-.63-.15-1.27-.09-1.9-.43,.91-.45,1.95-.08,2.88,1.05-1.16,1.65-2.65,1.7-4.21-.21,1.2-.74,2.31-1.53,3.23m3.3,4.59c0,.36,.16,.71,.45,.92,.54-.94,.71-2.04,.48-3.1-.01,.85-.2,1.69-.56,2.46,0,0-.32-.15-.37-.28m.92,.84c0,.32,.17,.61,.43,.79,.43-.84,.54-1.82,.32-2.74,.02,.78-.14,1.55-.46,2.25,0,0-.24-.16-.28-.27m-33.11-1.46c-.26-.42-.46-.92-.7-3.38-.18,2.2,.18,3.54,.69,4.18,.35-.4,.5-.95,.41-1.48-.08,.24-.22,.46-.39,.64m.89-1.13c-.29-.46-.73-1.13-1.13-3.8-.2,1.63,.2,3.27,1.13,4.63,.37-.47,.51-1.08,.38-1.67-.08,.3-.23,.59-.43,.83m.92-1.13c-.75-1.08-1.2-2.33-1.33-3.64-.06,1.62,.43,3.21,1.41,4.51,.44-.72,.48-1.61,.12-2.38,.02,.5-.05,.99-.2,1.46m.98-1.54c-.8-.91-1.34-2.03-1.54-3.23,.04,1.56,.65,3.06,1.7,4.21,.38-.93,.35-1.98-.08-2.88,.06,.64,.03,1.28-.08,1.9m-3.67,4.88c-.36-.77-.56-1.61-.57-2.47-.21,1.05-.04,2.15,.48,3.09,.29-.22,.45-.55,.45-.91,0,.14-.36,.29-.36,.29m-.84,.82c-.33-.71-.48-1.48-.46-2.25-.23,.92-.12,1.89,.32,2.74,.26-.18,.42-.47,.43-.79,0,.11-.28,.27-.28,.27m5.55,1.34c-.23-.11-.44-.27-.6-.47,.1,.56,.44,1.05,.95,1.33,.29-.97,.47-1.72-.88-4.51,.94,2.76,.53,3.68,.53,3.68m.9-2.4c-.25-.07-.48-.21-.65-.41,.15,.54,.51,.99,1,1.26,0,0,.66-1.6-.86-3.89,.83,2.4,.51,3.03,.51,3.03m6.82,11.68c0-.98-.22-1.95-.64-2.84-.09,.17-.14,.37-.14,.56-.34-.48-.56-1.02-.65-1.6-.1,.58-.28,1.15-.52,1.69,.2-.02,.39-.09,.55-.2,.23,1.05,1.13,1.27,1.4,2.39m9.08-2.25c0-.2-.05-.39-.15-.56-.42,.89-.64,1.86-.63,2.84,.3-1.13,1.13-1.35,1.4-2.38,.16,.11,.35,.18,.54,.19-.23-.54-.4-1.11-.51-1.69-.09,.58-.32,1.12-.65,1.6m-6.76-1.24c-.15-.87-.46-1.7-.9-2.46-.11,.92,.23,1.83,.9,2.46m3.38,1.37c.53-.91,.79-1.96,.73-3.01-.5,.93-.7,1.98-.59,3.03m-1.13,.72c.29-.67,.27-1.43-.06-2.08-.27,.67-.25,1.43,.06,2.08m-.83-2.25c.28-.77,.23-1.63-.16-2.35-.27,.77-.21,1.62,.16,2.35m5.97-7.64c-.41,.89-.7,1.83-.83,2.81,.19-.17,1.13-2.41,.83-2.81m0-2.53s.87-1.51,.37-2.33c-.56,.12-.35,2.34-.37,2.33m-2.47,3.65c.77-.78,1.23-1.81,1.3-2.91-.23,.65-.7,1.2-1.31,1.53-.34-.25-.6-.61-.73-1.01-.15,.87,.13,1.76,.74,2.39m2.64-1.85c.36-.56,.86-1.39,.45-1.93-.19,.63-.34,1.27-.45,1.93m-4.07,6.33c.48-.82,.72-1.76,.7-2.7-.51,.8-.76,1.75-.7,2.7m1.93-1.71c.83-.87,1.16-2.11,.87-3.28-.54,1.01-.83,2.13-.87,3.28m-1.72-3.45c-.19,.72-.58,1.38-1.13,1.88-.34-.32-.62-.7-.82-1.13-.12,.91,.28,1.82,1.04,2.34,.74-.84,1.08-1.96,.94-3.06m-3.47,3.3c-.51-.32-.94-.75-1.26-1.26,.31,.96,.87,1.81,1.62,2.48,.51-1.03,.6-2.21,.23-3.3-.11,.71-.33,1.41-.65,2.05m-4.69-8.86c-.1-.64,.7-1.24,.42-2.25-.58,.6-.75,1.49-.42,2.25m1.61,7.64c.3,.54,.68,1.03,1.13,1.45-.55-.84-1-2.41-1.55-2.84,.01,.49,.15,.97,.41,1.39m-.35-3.49c-.3,1.31,1,2.56,1,2.58-.02-.95-.37-1.87-1-2.58m.92-2.47c.01,.57-.03,1.13-.14,1.69-.32-.12-.6-.32-.82-.59,.32,.67,.76,1.29,1.28,1.81,.22-.98,.1-2.01-.33-2.92m-.57-3.38c.38-.97,.84-1.91,1.35-2.82-.98,.58-1.51,1.69-1.35,2.82m-1.13,5.73c-.02-.98-.24-1.94-.64-2.83-.05,.98,.17,1.96,.64,2.83m3.28-4.33c-.88,1.13,.47,2.48,.47,2.49s.11-2.08-.47-2.49m.65-3c-.78,.46-1.04,1.46-.58,2.24,.04,.06,.08,.12,.12,.17,.27-.78,.42-1.59,.46-2.41m.77,8.83c.55-.89,.74-1.96,.53-2.99-.04,.66-.35,1.27-.86,1.69-.34-.23-.61-.56-.75-.95-.01,.89,.41,1.73,1.13,2.25m6.67-8.68c.11,.89,.38,1.75,.8,2.55,.28-.93-.04-1.94-.8-2.55m-1.77-2.93c-.12,.63,.9,1.59,.89,1.59,.08-.67-.28-1.31-.89-1.59m1.49,4.81c-.1,.72-.42,1.38-.91,1.92-.33-.28-.63-.59-.89-.92,.06,.83,.38,1.62,.92,2.25,.81-.85,1.14-2.05,.88-3.2m-2.81-2.59c-.52,.57,0,1.7,.27,2.72,.28-.5,.62-2.17-.27-2.72m.46-1.6c.06-.78-.51-1.47-1.3-1.53-.08,.59,.92,.94,1.3,1.53m-1.25-2.13c.26,.27,1.13,.46,1.55,.89-.08-.62-.65-1.05-1.26-.97-.1,.01-.2,.04-.29,.08m-1.13,3.24c-.47,.38-.6,1.05-.3,1.58,0,0,.97-1.05,.3-1.58m1.13,8.22c.72-.79,1.12-1.81,1.13-2.87-.32,.55-.73,1.05-1.19,1.49-.36-.26-.69-.57-.98-.91,.1,.85,.48,1.64,1.07,2.25m-1.49-5.33c-.51,.84-.51,1.9,0,2.74,0,0,.62-1.87,0-2.74m.3-9.57c.25,.25,1.03,.57,1.46,.98-.06-.66-.64-1.03-1.46-.98m.41,.78c-.36-.41-.84-.69-1.37-.79,.28,.49,.81,.79,1.37,.79m1.62,1.36c-.25-.44-.69-.75-1.19-.82,.18,.21,.32,.44,.43,.69-.23,.08-.47,.13-.71,.15,.46,.24,1.01,.24,1.48,0m-7.05-1.94c-.08,0-.14,.26,.11,.27s.26-.23,.26-.23c0,0-.27-.11-.37,0m6.83-13.37l-.68-.5c-.23,.16-.48,.37-.65,.51l.64,.47c.27-.19,.38-.28,.69-.48m-4.18,12.8c.05,.14,.05,.29,0,.43-.02,.31-.25,.57-.56,.62-.36,.11-.75-.1-.85-.47-.01-.05-.02-.09-.03-.14,0-.13,.03-.25,.08-.37-.14,0-.15,.11-.28,.29s-.21,.1-.42,.23c.06-.35,.29-.65,.61-.81,1.1-.28,2.26-.17,3.28,.32-.37-.04-.75-.07-1.13-.07h-.72m-.21,0h-.46s.23,.19,.3,.23c.07,.02,.14-.02,.17-.08v-.19m5.44-9.59c-4.22-.18-8.45,.15-12.6,1-.15-.4-.35-.78-.6-1.13-.82-.88-1.13,.08-1.13,.19,1.04,.06,1.22,.59,1.22,.59-.23,.42-.58,.77-1,.99-.52,.35-1.13,.57-1.76,.62-1.95,.09-1.42-1.94-.24-2.76-.16,.19-.84,1.25-.42,1.79s2.25,.11,2.72-.44c-.39-.25-.87-.33-1.32-.23,.1-.77,.51-1.47,1.13-1.94,.7,.23,1.28,.73,1.61,1.4,2.71-.54,5.46-.86,8.22-.95-.07-.48-.24-2.35-.25-2.47,0-.3,.18-.44,.38-.56,.18,.36,.5,.62,.89,.73-.17,.18-.37,.34-.57,.48,0,.37,.06,1.05,.07,1.33,.63-.27,1.29-.49,1.96-.64,.28-.07,.57-.1,.86-.08,.27,.04,.53,.15,.75,.32,.18,.15,.29,.37,.3,.6,.01,.4-.06,.81-.2,1.18m-.66-1.22c-.41-.65-1.89-.07-2.84,.33h2.87c.05-.11,.05-.23,0-.34m-13.47,3.48l-.57-.17c-.15,.21-.29,.5-.39,.66l.79,.26,.29-.46,.56,.17,.44-.66-.82-.26c-.1,.15-.2,.32-.29,.46m23.77-2.4c.63,0,1.22,.1,1.49-.19-.38-.11-.8-.21-.94-.42,.17-.14,.42,.06,.54,.16l.24-.23c-.36-.28-.88-.21-1.15,.15-.01,.02-.03,.04-.04,.06,.13,.06,.25,.13,.36,.21-.17,.06-.34,.15-.5,.25m-.37,1.18c-.26,.61-.48,1.22-.78,1.75,.18,.08,.42-.07,.59-.18,.78-.7,1.36-1.6,1.67-2.6-.24,.04-.48,.11-.71,.2-.38,.13-.66,.45-.77,.83m-5.96,.28l.55,.56,.75-.41c-.21-.21-.35-.36-.59-.57-.25,.12-.54,.3-.72,.42m5.33-.61c-.16,.36-.38,.68-.65,.96-1.58-.54-3.21-.92-4.87-1.13-.38,.48-.89,.85-1.46,1.06-.68-.08-1.34-.27-1.95-.56h.64c.73-.02,1.45-.23,2.08-.61-1.13-.18-1.43-.5-.88-1.24,.26-.34,.69-.95,1.3-.79s.61,.81,.55,1.33c1.5,.24,2.98,.61,4.42,1.13,.09-.37-.16-.56-.32-.83,.22-.23,.47-.43,.73-.61,.37,.35,.52,.87,.41,1.36m-6.42-1.74c-.14,.09-.26,.22-.34,.37,.1,.16,.3,.23,.62,.27h.17c.15-.34-.17-.75-.45-.65m-14.49,2.76l.77,.33,.52-.62c-.29-.12-.48-.23-.78-.34-.18,.2-.35,.41-.51,.63m33.19,50.7c-1.56,3.15-3.99,5.78-7.01,7.59-4.43,2.81-9.01,2.13-10.52,1.26l.16,.38,.15,.36c.59,1.6,.19,3.26-1.97,3.5-.67,.02-1.33,.16-1.95,.43-.66,.32-1.26,.77-1.76,1.31-.43,.48-.81,1-1.13,1.57h0c-.31-.57-.69-1.09-1.13-1.57-.5-.54-1.09-.98-1.75-1.31-.62-.26-1.29-.41-1.96-.43-2.15-.25-2.55-1.92-1.96-3.5,.04-.12,.09-.24,.15-.35l.15-.39c-2.22,.91-4.68,1-6.96,.26l-.32-.08c-2.51-.69-4.81-2.01-6.68-3.83-1.64-1.55-3.02-3.36-4.08-5.35-4.2-8.69-3.61-21.58-3.63-22.95-.14-14.88,3.17-23.23,5.99-27.26-.86-1.13-1.37-1.81-1.42-1.85-.47-.49-1.09-.8-1.77-.87-.24-1.44-.58-2.87-1.01-4.27,1.19,.85,2.45,1.58,3.77,2.2-.14,.67-.01,1.36,.36,1.94l1.13,1.49c1.29-1.61,2.9-2.94,4.72-3.91,.51-.29,1.05-.56,1.63-.83-.05-.77,.23-1.52,.75-2.07,.06-.53,.39-.98,.87-1.21h0c.56-.09,1.13,.07,1.55,.44,.81,.12,1.56,.52,2.11,1.13,1.95-.4,3.93-.66,5.93-.78,.25-1.01,.93-1.85,1.86-2.31,.3-.54,.84-.9,1.45-.98h0c.61,.08,1.14,.44,1.44,.98,.93,.46,1.61,1.31,1.85,2.32,2,.11,3.98,.37,5.94,.78,.54-.61,1.29-1.01,2.1-1.13,.43-.37,1-.53,1.57-.44h0c.48,.22,.81,.68,.88,1.21,.52,.56,.8,1.31,.75,2.07,.59,.27,1.13,.54,1.62,.83,1.82,1.03,3.43,2.37,4.78,3.97l1.24-1.64c.37-.58,.5-1.27,.36-1.94,1.32-.62,2.59-1.35,3.77-2.2-.43,1.4-.77,2.83-1.01,4.27-.67,.07-1.3,.38-1.77,.87,0,0-.64,.82-1.6,2.1,2.82,4.06,6.06,12.39,5.93,27.12,0,1.13,.59,14.33-3.62,23.02m-1.32-46.74c-1.17,.26-2.36,.38-3.56,.34-.57,1.08-.84,2.3-.79,3.53-.57-.13-1.08-.43-1.49-.84l-1.32,1.76c3.07,5.58,4.7,11.84,4.74,18.21,2.26-1.27,4.41-2.74,6.4-4.41-.44-7.72-1.62-13.52-3.99-18.58m-7.4,23.24c-.13,.82-.09,1.65,.11,2.46,.46-.61,.8-1.3,1.01-2.03,0,.68,.14,1.35,.39,1.97,.48-1.31,.78-2.68,.88-4.07,0,0,0,.08,.3,.18,.23-1.56,.2-3.14-.11-4.69-.55-2.69-1.81-5.19-3.64-7.24-1.24-1.48-2.25-.81-3.38,.34-1.7,1.85-2.07,2.67-4.1,3.04h0c-.2,0,0,.14,.35,.14,2.46,0,3.21-1.67,3.95-2.48,.48-.54,1.13-1.03,1.63-.72,.2,.11,.87,.89,.17,2.81,.01-.32-.08-.64-.25-.91-.26,1.11-.69,2.17-1.26,3.15-.07-.22-.11-.45-.15-.68-.25,1.54-1.63,3.15-1.84,5.37-.2-.28-.3-.62-.28-.97-1.05,1.94-2.13,5.41-1.45,7.14,.13-1.81,.69-3.57,1.65-5.11-.72,2.25-1.55,5.08-.83,6.76,.17-1.68,.67-3.31,1.48-4.79-.99,3.73-1.41,5.63-.3,7.08-.05-1.82,.33-3.62,1.13-5.26-.52,2.92-1.25,5.46,.11,6.76-.08-1.83,.23-3.65,.92-5.34-.45,2.82-.83,5.53,.07,6.88,.03-.99,.15-1.97,.37-2.93,.24-1.23,.61-2.41,.61-2.41,0,0-.29,1.97-.44,4.36-.02,.4-.02,.8,0,1.21,0,.49,.06,.98,.15,1.46,.07,.42,.22,.83,.43,1.21,.12-2.42,.47-4.83,1.04-7.19,0,0-.36,2.97-.6,7.53v.48c-.3,6.53,.57,8.63,.86,9.25-.07-.31-.09-.64-.08-.96-.05-.49-.05-.98,0-1.46-.32-.99-.49-2.02-.5-3.05,.06-.97,.12-1.94,.2-2.87s.15-1.7,.25-2.5,.16-1.44,.27-2.19c.14-1.05,.35-2.1,.54-3.15,.15-.82,.07-.09,0,.1-.07,.95-.25,3-.41,5.13-.11,1.58-.47,4.71-.39,6.22,.05,.71,.2,1.41,.44,2.08-.17,1.53,.04,3.08,.62,4.51,0,0,.26-.91,.46-2.05-.06,.1-.15,.19-.26,.23-.38-1.22-.47-2.51-.27-3.77-.19-.58-.3-1.19-.33-1.8,.08-1.89,.26-3.77,.53-5.63,.08-.62,.17-1.23,.26-1.8l.17-1.13c.08-.59,.19-1.13,.32-1.77v-.27c0-.09,0,.44,0,1-.21,2.52-.78,8.95-.79,9.45,0,.64,.1,1.27,.3,1.87-.09,1-.07,2,.08,3,.09-.35,.15-.7,.19-1.06,0,0,.36-2.6,.77-6.31,.07-.57,.12-1.13,.19-1.72s.11-1.13,.17-1.64,.12-1.33,.18-1.99c0-.28,.06-.56,.08-.86,.16-1.75,.33-3.72,.48-5.45,0,0,.23-2.83,.28-3.68-.05-.03-.09-.06-.14-.1,0,0-.33,3.5-1.26,4.72-.33-.61-.51-1.28-.53-1.97-.25,.6-.61,1.15-1.06,1.62-.15-.57-.19-1.15-.12-1.74-.24,.39-.57,.72-.97,.96-.28-.6-.41-1.26-.36-1.93-.22,.27-.49,.5-.79,.68-.11-.27-.73-1.25,.39-4.9-.45,3.38-.18,3.75-.1,4.03,.19-.09,.36-.2,.52-.34,.07-.81,.19-1.61,.35-2.4-.17,2.67,0,3.52,.26,4.03,.51-.52,.9-1.15,1.13-1.85m-8.22,1.13c.17-2.47,.6-4.92,1.27-7.3-1.83,1.99-1.57,6.62-1.33,7.33m.34-7.56c.59-1.74,.1-2.61-.25-2.79,0,.8,.21,1.13,.25,2.79m1.49,1.35c.43-1.25,.67-2.55,.71-3.86-.58,1.2-.83,2.54-.71,3.86m1.58-3.38c.14-.64,.16-1.29,.07-1.94-.37,.97-.54,2-.5,3.04,.18-.36,.32-.74,.43-1.13m-4.2,13.08s0-.05,0-.08h0c.08,.02,.16,.05,.23,.1l.24,.15c-.13-.41-.19-.83-.19-1.26,0-.54-.08-1.07-.21-1.59v-.07c-.11,.27-.27,.52-.45,.74-.31,.34-.52,.75-.62,1.19v.15l-.08-.07c.14,.14-.38-.46-.38-.47-.47,1-1.08,1.92-1.81,2.75h0c-.45,.81-.7,1.71-.73,2.64-.12,.93-.12,1.88,0,2.82l.46-.51c.02,.35,.02,.7,0,1.05-.03,.27-.09,.53-.19,.78,.63,.05,1.24-.21,1.62-.71l.14,.34c.11,.33,.19,.72-.07,.94,0,0-.47,.42-.42,.8,.02,.15,.11,.29,.25,.36h0c.02,.17,.12,.32,.28,.38-.04-.12-.04-.24,0-.36,.05-.18,.22-.31,.41-.32,.07-.01,.14-.01,.2,0,0,0,.11,1.06,.21,1.49s.17,.88,.24,1.43v.36c0,.36,.25,.39,.44,.43,.15,.01,.3,.01,.45,0h0c-.27,.07-.25,.18-.25,.21,.07,.23,.07,.47,0,.7h0c.33-.19,.48-.59,.36-.95h0c.32-.18,.25-.81-.21-1.77-.2-.45-.29-1.21-.16-1.28h0c.08,0,.16,0,.37,.3s.3,.41,.48,.64c.17,.16,.27,.38,.3,.61,.02,.05,.02,.1,0,.15-.04,.01-.09,.01-.14,0-.1,.01-.2,.01-.29,0,.1,.1,.48,.54,.6,.41,.28-.34,0,.2,.53,.26,.33,0,.55-.2,.57-.6,.01-.12,.01-.23,0-.35-.08-.34-.25-.64-.5-.89l-.11-.12c-.83-.92-.77-1.13-.72-1.22s.16-.19,.38-.2c.24-.02,.47-.02,.71,0,.34,0,.9,.15,.88,.33,0,.04-.04,.08-.08,.1-.12,0-.32,.11-.34,.07,.08,.1,.18,.18,.3,.23,.15,.07,.73,.23,.91,0l.06-.11c.1,0,.38,0,.44-.25s-.18-.43-.43-.55c-.41-.18-.83-.34-1.25-.47-.19,0-.43-.09-.61-.15l-1.01-.27-.75-.26-.21-.1c-.17-.09-.31-.22-.43-.37-.16-.33-.27-.67-.35-1.03,.24,.16,.52,.28,.81,.33-.03-.3-.03-.61,0-.91,.16-1.68,.19-2.64,.19-2.64l.34,.35c.01-.57-.02-1.13-.1-1.69h0c-.07-.65-.19-1.3-.34-1.94m1.22,7.99l.78,.2,.38,.09c.13-.36,.2-.74,.19-1.13,0-.44,.98,.47,1.63,1.13,.28,.27,.33,.16,.18,0-.67-.79-1.46-1.47-2.35-2.01-.63-.39-.95-.3-.73,0,.23,.55,.2,1.18-.08,1.71m1.13,6.51c.75,.94,1.94,2.7,2.39,3.18,.98,1.01,1.4,1.13,2.14,1.13-.38-1.1-.91-2.15-1.57-3.11-.79-1.28-1.67-2.51-2.64-3.66,0,.18-.02,.36-.07,.53-.02,.04-.04,.07-.06,.11-.07,.12-.16,.22-.27,.29-.17,.12-.37,.17-.57,.15-.19,0-.37-.08-.5-.23-.13,0-.25-.02-.36-.09,.05,.29-.02,.58-.2,.81,.01,.37-.12,.73-.38,.99l.06,.08c.24,.44,.14,.65,0,.79s-1.3,1.44-1.55,1.68c-.19,.16-.47,.16-.65,0l-.19-.17-.55,.55,.07,.06c.39,.35,.84,.63,1.33,.82,.43,.18,1.69,.65,2.53,1-.2-.63-.44-1.34-.69-2.05,.23,.3,.83,1.39,1.36,2.33,0,0,.06,0,0,0,.77,.33,1.52,.71,2.25,1.13-.06-.24-.1-.39-.1-.39-.38-.4-.73-.82-1.06-1.26-.73-1.04-1.3-2.18-1.69-3.38,.98,1.49,1.23,1.89,1.61,2.42,.7,1.14,1.79,1.99,3.06,2.39-.18-.92-.51-1.13-.51-1.13-.47-.42-.89-.89-1.26-1.4,.16,.21,.29,.41,0,0s-.16-.21,0,0c-.77-1.08-1.39-2.25-1.87-3.48m-3.38,8.15c2.19,.25,4.4,.13,6.55-.34-1.75-1.21-3.64-2.2-5.63-2.95-.71-.26-1.39-.59-2.04-.98-.32-.23-.63-.48-.92-.75-1.04-.95-3.74-3.76-4.22-4.29l-1.79,1.66c1.88,1.89,3.87,3.65,5.96,5.3,1.92,.78,3.9,1.4,5.93,1.84-2.02-.17-4.02-.61-5.93-1.3-1.54-.62-6.41-5.42-6.41-5.42l-1.18,1.13c1.24,1.4,2.59,2.69,4.03,3.86,1.64,1.29,3.61,2.07,5.69,2.25m-5.16-1.13c.08,.75,.41,1.45,.94,1.98,.24-.37,.38-.8,.42-1.24-.47-.2-.93-.45-1.35-.74m-8.12-5.87c-.4,1.2-.97,2.34-1.69,3.38-.33,.44-.68,.86-1.07,1.25,0,0,0,.11-.07,.29l-.17,.07,.71-.39,.35-.17c.49-.26,.99-.5,1.51-.71,.51-.92,1.13-2.02,1.31-2.25-.17,.71-.41,1.39-.72,2.05l.38-.16c.81-.32,1.51-.56,1.85-.73,.37-.16,.72-.37,1.04-.63l.23-.2-.57-.57-.19,.16c-.19,.17-.47,.17-.65,0-.26-.25-1.44-1.55-1.55-1.68s-.25-.37,0-.8h0c-.28-.27-.43-.64-.42-1.03-.18-.23-.25-.52-.2-.81-.1,.07-.23,.1-.35,.09-.13,.14-.31,.22-.5,.23h.05c-.19,0-.38-.05-.53-.17-.13-.09-.24-.22-.29-.37h0c-.85,.96-1.6,2-2.25,3.11-.68,.98-1.23,2.05-1.64,3.17,.75,0,1.13-.16,2.15-1.18,.45-.47,1.63-2.25,2.39-3.17-.49,1.24-1.12,2.42-1.89,3.5-.39,.54-.84,1.04-1.34,1.48,0,0-.28,.18-.45,1.13,1.27-.41,2.35-1.26,3.05-2.39,.38-.52,.63-.94,1.61-2.41m-.68-4.93c-.38,.35-.62,.84-.65,1.36-.03,.3,.2,.57,.5,.6,.02,0,.05,0,.07,0,.51,0,.25-.6,.53-.26,.12,.14,.5-.3,.6-.41-.21,0-.53,.07-.47-.25,.06-.24,.19-.45,.36-.62,.14-.17,.54-.95,.81-.86s0,.83-.16,1.28c-.46,.96-.53,1.59-.21,1.77h0c-.12,.36,.03,.76,.36,.95h0c-.07-.23-.07-.47,0-.7,0,0,0-.15-.25-.21h0c.15,.01,.3,.01,.45,0,.18,0,.39-.07,.44-.43v-.36c.05-.48,.13-.96,.24-1.43,.1-.43,.21-1.49,.21-1.49,.07-.01,.14-.01,.2,0,.19,0,.35,.13,.41,.32,.03,.12,.03,.24,0,.36,.16-.07,.27-.21,.28-.38h0c.13-.08,.23-.21,.25-.36,.06-.38-.38-.78-.42-.8-.27-.21-.18-.61-.07-.94l.16-.41c.14,.18,.32,.33,.52,.44,.35,.26,.78,.38,1.22,.34-.09-.25-.15-.51-.18-.78-.02-.35-.02-.7,0-1.05l.46,.51c.19-.87,.22-1.77,.09-2.66-.07-1.06-.32-2.1-.72-3.08-.1-.31-.24-.61-.39-.9-.07,.21-.2,.39-.37,.52-.53-.62-.95-1.33-1.24-2.08-.1,.18-.23,.34-.39,.47l-.07,.07v-.09c-.1-.45-.32-.86-.63-1.19-.18-.23-.34-.48-.45-.74-.14,.53-.21,1.07-.23,1.62,0,.43-.06,.85-.19,1.26l.24-.14c.11-.08,.17-.11,.23-.11h.06s.02,.06,0,.09c-.14,.64-.25,1.29-.33,1.95-.05,.53-.03,1.07,.06,1.6l.52-.29c-.21,.88-.26,1.79-.15,2.68,.03,.3,.03,.61,0,.91,.26-.05,.51-.15,.73-.29-.07,.35-.18,.69-.34,1.01-.53,.49-1.21,.8-1.94,.88-.8,.16-1.58,.41-2.33,.74-.25,.12-.48,.38-.43,.55s.34,.25,.44,.25l.06,.11c.19,.27,.77,.11,.91,0,.12-.05,.23-.13,.32-.23,0,0-.23,0-.35-.07-.04-.02-.07-.06-.08-.1,0-.34,1.39-.38,1.59-.38s.29,0,.38,.2,.12,.29-.72,1.22m.41-4.51c.23-.35-.1-.45-.73-.06-.89,.54-1.68,1.21-2.34,2.01-.17,.21-.11,.34,.17,0,.65-.66,1.66-1.59,1.64-1.13-.01,.38,.05,.77,.18,1.13l.3-.08,.87-.23c-.29-.53-.32-1.16-.09-1.71m-1.43-13.16c.93,1.54,1.49,3.28,1.62,5.07,.68-1.74-.41-5.21-1.45-7.13,.02,.34-.08,.68-.28,.96-.2-2.25-1.59-3.83-1.83-5.37-.04,.23-.09,.45-.16,.68-.58-.98-1-2.05-1.26-3.15-.17,.27-.25,.59-.25,.91-.69-1.92,0-2.69,.17-2.81,.53-.3,1.13,.18,1.63,.72,.74,.81,1.5,2.43,3.95,2.48,.41,0,.55-.1,.35-.14h0c-2.03-.37-2.4-1.19-4.09-3.04-1.06-1.13-2.11-1.81-3.38-.34-1.82,2.05-3.08,4.55-3.63,7.24-.31,1.54-.35,3.13-.12,4.69,.29-.1,.32-.18,.32-.18,.1,1.39,.39,2.76,.87,4.07,.26-.63,.39-1.3,.39-1.97,.21,.73,.55,1.42,1.01,2.03,.21-.8,.25-1.64,.12-2.46,.22,.7,.6,1.33,1.13,1.85,.2-.52,.42-1.36,.25-4.03,.17,.79,.28,1.59,.35,2.4,.16,.13,.33,.25,.52,.34,.09-.28,.35-.66-.1-4.03,1.13,3.65,.51,4.63,.39,4.9-.3-.18-.57-.41-.79-.68,.05,.66-.08,1.32-.36,1.92-.4-.23-.72-.55-.96-.95,.03,.62-.05,1.25-.26,1.84-.44-.48-.8-1.03-1.06-1.63-.02,.69-.2,1.36-.53,1.97-.94-1.23-1.25-4.71-1.25-4.71l-.14,.1c0,.84,.16,2.16,.28,3.66h0c.15,1.74,.33,3.71,.47,5.45,.36,4.19,.83,8.37,1.39,12.53,.04,.36,.1,.71,.19,1.06,.15-.99,.18-2,.09-3,.19-.6,.29-1.24,.29-1.87,0-.51-.59-6.93-.78-9.45,0-.3-.07-.99-.07-.99v.26c.2,.96,.35,1.92,.5,2.87,.08,.57,.17,1.13,.25,1.8,.28,1.87,.46,3.75,.53,5.63-.01,.61-.12,1.22-.33,1.8,.2,1.26,.11,2.55-.27,3.77-.11-.04-.2-.12-.26-.23,.2,1.13,.47,2.05,.47,2.05,.58-1.43,.79-2.98,.62-4.51,.24-.67,.38-1.37,.43-2.08,0-.38,0-1.62-.16-3.14-.19-2.74-.43-5.48-.64-8.2v-.47s.06,.25,.08,.38c.72,3.53,1.14,7.11,1.26,10.7,0,1.04-.17,2.07-.5,3.05,.07,.49,.09,.98,.06,1.46,.02,.33-.01,.65-.09,.97,.28-.63,1.13-2.73,.86-9.26v-.48c-.25-4.51-.61-7.53-.61-7.53,.58,2.36,.92,4.76,1.04,7.19,.04-.05,.07-.1,.09-.16,.42-1.19,.58-2.46,.45-3.72-.15-2.39-.43-4.35-.43-4.35,0,0,.06,.18,.06,.2,.23,.74,.41,1.49,.54,2.25,.17,.84,.29,1.7,.35,2.56v.36c.91-1.35,.52-4.07,.07-6.88,.69,1.69,1.01,3.51,.94,5.34,1.36-1.27,.62-3.82,.1-6.76,.8,1.64,1.18,3.44,1.13,5.26,1.13-1.44,.69-3.38-.3-7.08,.81,1.48,1.31,3.11,1.49,4.79,.72-1.69-.12-4.51-.83-6.76m12.31,8.21c.51-.69,.79-1.53,.8-2.39,.17,.14,.3,.32,.38,.53,.58-1.19,.98-2.46,1.19-3.76,.24,.11,0,.06,.3,.19,.46-1.19,.73-2.44,.81-3.71,.09,0,.25,0,.32,.11,.12-.89,.26-2.32,.29-3.38,.07-1.23-.05-2.46-.36-3.65-.27-.87-.65-1.7-1.13-2.48-.12,.06-.23,.14-.32,.25-.17-.5-.62-1.68-.83-2.11-.56-1.13-.82-1.79-1.41-2.16,.23,.04,.46,.06,.7,.07-.29-.33-.61-.65-.95-.94,.14-.09,.38-.08,.79,0-.57-.53-.77-1.33-2.25-1.88,.27-.02,.55-.02,.82,0-.33-.48-.82-.83-1.37-.99-1.51-.29-3.61-.34-4.57,.81-.18,.1-.37,.17-.56,.23-.1,.03-.2,.07-.28,.14-.17,.12-.2,.29,.12,.75-.43,0-.54-.46-.61-.43-.18,.12-.34,.28-.45,.46-.16,.26-.24,.55-.24,.86,.13,.1,.31,.08,.41-.05,.04-.05,.06-.11,.06-.17,0-.15,.69-.2,.92-.2s.63,.08,1.05,0c-.15,.06-.61,.19-.78,.24s-.21,.25,0,.27,.28-.07,.46-.1,0,.25,.07,.37c1.22-.28,1.31,1.03,2.6,.77-.61-.47-1.13-1.26-1.61-1.51,1.28,.2,1.98,1.35,3.38,1.41q0-.14-.17-.37c.47,0,.8,.36,.95,.35-.32,.26-.72,.4-1.13,.42,.09,.18,.61,.21,.78,.25-.33,.29-.8,.39-1.22,.25-.4,.45-.86,.83-1.39,1.13-.01-.14-.01-.29,0-.43-.6,.35-.98,.98-1.43,1.13,.14-.23,.25-.61,.34-.8-1.36,1.1-2.57,2.37-3.61,3.79-.66,1.32-.92,2.8-.74,4.26,.06,1.04,.5,3.98,.57,4.56,.11-.05,.21-.1,.33-.14,.44,2.21,1.17,4.36,2.19,6.38,.06-.19,.19-.35,.35-.46,.1,.63,.4,1.22,.87,1.66,0-.26,.08-.52,.2-.75,.12,.42,0,1.72,.8,2.44,0-.38,.06-.76,.18-1.13,.09,.46,.21,.91,.36,1.35,.16,.44,.43,.83,.8,1.13-.02-.47,.03-.94,.16-1.4,.34,.53,.54,1.13,.6,1.76,.75-.59,1.05-2.49,1.05-2.49,.18,.2,.31,.45,.37,.71,.54-.65,.9-1.42,1.06-2.25,.05,.37,.05,.75,0,1.13m.75,10.14c.5,.02,1.01,0,1.51-.07,0-.1,0-.2-.06-.28v-.21h0c-.56,.17-1.15,.21-1.72,.11-.24-.04-.47-.1-.7-.18-.28-.08-.72,.38-1.06,.73l-.84,.94s-.03,.05-.01,.08h.01l4.29,3.94h.18l.65-.68-3.76-3.55s-.03-.11,0-.16l.23-.23s.11-.05,.16,0h0l1.21,1.14,1.61,1.43,1,.89,.16-.16c.16-.17,.11-.28-.39-.78l-2.6-2.59c-.25-.29-.07-.38,.23-.38m-5.79,.79l-3.76,3.55,.65,.68c.08,.08,.11,.07,.18,0s3.98-3.65,4.29-3.92v-.1s-.55-.62-.84-.92-.78-.81-1.06-.73c-.23,.07-.46,.13-.7,.17-.58,.09-1.17,.06-1.74-.1h-.08v.26c0,.08,0,.17,0,.25,.52,.07,1.04,.09,1.57,.07,.29,0,.47,.1,.23,.38l-2.6,2.6c-.52,.48-.55,.6-.39,.77s0,0,.16,.16l1-.89,1.61-1.42s1.13-1.13,1.21-1.13h.17l.23,.24v.16m.36-8.77c0-.18-.04-.36-.12-.52-.13-.17-.28-.33-.44-.47-.05-.06-.09-.12-.12-.19,0,.21,.02,.41,.08,.61,.05,.18,.17,.33,.33,.42,.09,.06,.18,.12,.28,.16m0,7.13c.11,.1,.22,.2,.33,.32,.11-.59,.17-1.18,.17-1.78-.25,.45-.42,.95-.5,1.46m-1.72-.11c.22-.1,.45-.19,.69-.26h.14c.12-.42,.26-.83,.42-1.24-.46,.47-.88,.98-1.24,1.53m2.78,1.28c0-.51,0-1.06-.08-1.3-.16,.27-.28,.57-.34,.88,0,0,.37,.38,.42,.42m.25-3.38c-.05-.36-.26-.67-.57-.86,.07,.35,.28,.66,.57,.86m.37-1.13h0c.08-.15,.2-.28,.34-.37,.51-.3,.99-.65,1.43-1.04,.13-.2,.23-.42,.28-.65-.16,.22-.36,.41-.6,.54-.49,.25-.94,.58-1.33,.97-.06,.1-.1,.2-.11,.32-.01-.08-.04-.16-.07-.24-.26-.53-1.03-.74-1.48-1.27-.3-.35-.32-.48-.32-.48-.03,.29,.04,.57,.2,.81,.3,.32,.64,.61,1.01,.84,.26,.13,.47,.33,.62,.57m-.48-1.9c0-.83-.91-.92-1.13-1.76-.11,1.13,.7,1.13,1.13,1.76m.42,3.38c.13-.06,.26-.14,.38-.21,.23-.12,.42-.3,.55-.52,.09-.18,.12-.38,.08-.57-.07,.2-.2,.37-.36,.5-.14,.13-.28,.28-.41,.43-.1,.11-.18,.24-.25,.38m.8,.48c.09,.51,.16,1.67,.17,2.04h0l.42-.42c-.08-.58-.29-1.13-.6-1.62m-.74,3.04s.3-.36,.45-.51h0c-.05-.6-.2-1.19-.45-1.75v2.25m0,.35v.6l.29-.3s-.23-.21-.29-.29m.19,.99c.52,.55,1.22,1.28,1.68,1.72l.48-.46-1.81-1.62-.37,.39m2.12,2.15l1.13,1.13,.51-.55-1.18-1.13s-.18,.19-.5,.48m.35-5.57c-.33-.47-.71-.9-1.13-1.3,.18,.42,.34,.86,.47,1.3h.07c.07-.02,.15-.02,.23,0,.08,0,.17,0,.25,0h.1m-.43-6.76c-.19,.32-.44,.6-.72,.84,.1-.17,.18-.36,.24-.55-.18,.34-.42,.64-.69,.91-.31,.29-.53,.65-.64,1.06,.23-.23,.5-.43,.79-.57,.57-.39,.98-.98,1.13-1.66m-8.4-7.28c.05,.78,.47,1.49,1.13,1.92-.26-.7-.64-1.35-1.13-1.92m13.52-11.96c.25,.02,.51-.05,.72-.18,.13-.06,.23-.16,.3-.28,1.55-2.25,4.44-5.86,6.59-8.72-4.42-4.35-10.73-4.65-12.39-4.51-.39,0-.83,.34-.35,.98-.78,.16-1.59,0-2.25-.44-.66,.44-1.47,.6-2.25,.44,.48-.64,0-.96-.34-.98-1.66-.12-8.3,.53-12.31,4.44l6.92,9.15c.15,.18,.37,.27,.6,.27h.11c.28-.05,.54-.21,.71-.44,.48-.52,.72-.81,1.19-1.3,.9-.92,1.76-1.63,1.9-1.77,.3-.22,.49-.56,.52-.94,0-.33-.28-.46-.45-.66-.02,.04-.05,.09-.08,.12-.14-.19-.25-.4-.32-.63l-.09,.24s-.34-.82-.88-.74c-.44,.06-.88-.02-1.27-.24,0,0-.08,.24-.07,.52h0c-.55-.58-.53-1.5,.05-2.05,.08-.08,.17-.14,.26-.2,.34-.27,.72-.48,1.13-.64,.15-.08,.29-.2,.39-.34,.36-.35,.81-.59,1.3-.69,.85-.19,1.72-.26,2.59-.21,.54,.03,1.07,.14,1.57,.34,.67,.37,1.26,.87,1.74,1.48,.49,.78,.9,1.6,1.23,2.46,.68,1.66,.6,1.46,1.06,2.57,.34,.93,.79,1.81,1.34,2.64,.15,.24,.42,.37,.7,.36m7.94-9.61l.45-.6c-2.37-2.09-5.22-3.56-8.29-4.29-1.68-.37-3.4-.54-5.11-.51-.91,0-1.5,.36-1.5,.94-.57-.1-.72-.82-.8-.96-.06,.3-.34,.89-.79,.96,0-.57-.59-.92-1.51-.94-1.72-.03-3.43,.14-5.1,.51-3.07,.66-5.91,2.1-8.26,4.18l.45,.59c1.93-1.77,4.25-3.06,6.76-3.8,1.94-.54,3.95-.81,5.97-.79,1.13,0,1.22,.64,1.13,.98,.61-.75,1.71-.86,2.46-.25,.09,.07,.17,.16,.25,.25-.12-.34,0-.94,1.13-.98,2.01-.02,4.02,.25,5.96,.79,2.54,.79,4.88,2.13,6.84,3.92m1.22-2.19c.14,.83,.53,1.6,1.13,2.2l.3,.2h0c.02-1.12,.33-2.23,.89-3.2h0c.92,.19,1.87,.19,2.79,0-1.42-.96-1.13-2.03-2.16-3.2-.12-.14-.25-.26-.39-.38-.24-.2-.54-.33-.86-.37-.19,0-.36,.07-.48,.21-.15,.16-1.62,1.74-2.59,2.83,.87,0,1.13,.79,1.36,1.7m.97-5.25c-1.32-1.22-2.85-2.2-4.51-2.9-4.92-2.15-11.18-2.16-12.97-2.16h0c-1.79,0-8.04,0-12.98,2.16-1.64,.7-3.15,1.68-4.45,2.9,0,0,2.25,2.5,2.81,3.18,.32,.31,.41,.79,.23,1.19,3.38-2.25,7.32-3.45,14.26-3.49h.32c6.76,.07,10.83,1.22,14.22,3.49-.16-.41-.07-.88,.24-1.19,.57-.68,2.81-3.18,2.81-3.18m-35.13,.73h0c-.14-.15-.48-.45-1.35,.16-1.52,1.33-1.04,2.52-2.6,3.58,.46,.09,.92,.13,1.39,.14,.22,.01,.44,.01,.66,0l.73-.11h0c.57,.97,.87,2.07,.88,3.2,1.85-.98,1.13-4.12,2.81-4.09l-2.52-2.83m1.19,6.33l2.57,3.38c.47,.64,2.08,2.58,2.07,2.32-.5-.82-1.04-1.61-1.62-2.37-.9-1.23-1.86-2.5-2.78-3.74l-.24,.35m6.67,12.19c.04,1.32,.28,2.63,.71,3.89,.12-1.34-.12-2.68-.71-3.89m-.79-1.46c-.1,.64-.07,1.3,.07,1.94,.11,.39,.25,.77,.44,1.13,.04-1.04-.14-2.07-.51-3.04m3.47,11.48c.24-.73,.51-5.35-1.33-7.36,.7,2.4,1.14,4.86,1.33,7.36m-5.04,25.79c2.15,.48,4.36,.6,6.55,.34,1.86-.18,3.63-.84,5.16-1.9-.36-.3-.8-.71-1.25-1.13-.54,.47-1.13,.88-1.77,1.21-1.91,.69-3.9,1.12-5.93,1.28,2.02-.43,4.01-1.05,5.93-1.83,.49-.31,.95-.66,1.37-1.05-.57-.54-1.13-1.13-1.54-1.51-.25,.23-.53,.45-.81,.64-.64,.4-1.33,.72-2.04,.98-1.98,.76-3.88,1.75-5.63,2.95m10.47,0c.13,.42,.3,.83,.51,1.23,.63-.59,1.03-1.39,1.13-2.25-.2,.17-.42,.33-.64,.47-.37,.23-.71,.38-.95,.51m16-44.65c.19-.27,1.13-1.51,2.39-3.19-.09-.1-.18-.21-.25-.33-.87,1.13-1.75,2.33-2.59,3.47-.59,.76-1.13,1.55-1.62,2.38,0,.25,1.6-1.69,2.07-2.33m7.26-8.31l-.45,.6c.4,.87,1.07,1.58,1.92,2.03-.44-.9-.93-1.78-1.46-2.63m-1.03-.61l.2,.36,4.9-6.51c-.8,.53-1.64,1-2.51,1.4,.06,.69-.13,1.39-.52,1.96-.08,.1-.92,1.19-2.16,2.83m-40.71-1l.38,.51c1.96-2.45,4.57-4.3,7.53-5.34-.46-.65-.33-1.54,.3-2.03h0c.83,0,1.55,.58,1.74,1.39,2.75-.69,5.56-1.07,8.39-1.13-.05-1.16,.61-2.23,1.66-2.72,.02-.23,.15-.44,.36-.54h0c.2,.11,.34,.31,.36,.54,1.05,.49,1.7,1.56,1.66,2.72,2.83,.06,5.64,.44,8.38,1.13,.19-.81,.91-1.39,1.75-1.39h0c.63,.48,.77,1.38,.32,2.03,2.98,1.07,5.61,2.94,7.59,5.41l.41-.52c-1.86-2.23-4.25-3.98-6.94-5.08,.26-.75,.06-1.58-.52-2.12,0-.31-.15-.6-.42-.77h0c-.34-.02-.67,.11-.9,.36-.83,.09-1.56,.59-1.94,1.33-2.32-.53-4.69-.85-7.06-.95-.04-1.13-.73-2.13-1.76-2.58-.17-.4-.52-.69-.94-.8-.42,.1-.76,.4-.92,.8-1.03,.45-1.72,1.45-1.77,2.58-2.38,.09-4.74,.41-7.05,.95-.38-.74-1.11-1.24-1.94-1.33-.23-.25-.56-.38-.9-.36h0c-.27,.17-.43,.46-.43,.78-.57,.54-.77,1.37-.51,2.12-2.66,1.07-5.01,2.79-6.83,5.01m-.15,1.22c.08-.14,.16-.25,.21-.33-1.13-1.52-1.94-2.55-2.02-2.64-.39-.58-.57-1.27-.52-1.96-.84-.39-1.65-.84-2.42-1.36,0,0,2.25,2.97,4.74,6.29m-2.39,3.03c.55-.31,1.02-.73,1.41-1.23,.2-.29,.39-.6,.54-.92l-.48-.62c-.53,.9-1.03,1.83-1.46,2.77m-4,18.62c1.99,1.67,4.13,3.14,6.39,4.41,.09-6.39,1.74-12.66,4.82-18.26l-1.28-1.7c-.44,.44-.99,.75-1.59,.9,.04-1.22-.23-2.44-.79-3.53-1.2,.04-2.4-.07-3.57-.34-2.35,5.04-3.55,10.86-3.98,18.58m21.29,35.43v-.07c.14-.36,.73-1.8,1.05-2.53,0-.14-.09-.26-.12-.38-.42,.07-.83,.14-1.25,.17s-4.44,.68-7.46-.74c.37-.26,1.06-.82,1.99-1.42v-.19c-.6,.33-1.28,.49-1.96,.45,0-.61,.1-1.22,.33-1.79-.37,.08-.76,.07-1.13-.02,.37-1.12,.85-2.2,1.43-3.22,.97-1.64,2.07-3.2,3.29-4.66,.1-.39,.3-.75,.59-1.05l.18-.2-.36-.29c-.08,.1-.18,.18-.29,.24-.23,.12-.48,.2-.74,.21-.27,.06-.56-.04-.74-.25h0c-.25-.05-.46-.23-.54-.47-.01-.04-.01-.09,0-.14-.18,.09-.4,.06-.55-.08-.27-.23,.1-1.4,1.37-2.6,.73-.7,1.57-1.27,2.5-1.67,.6-.27,.95,.25,.65,.6-.45,.54-.55,1.3-.26,1.94,.19-.06,.38-.12,.56-.2,.2-.05,.38-.18,.5-.35,.03-.04,.05-.08,.07-.12h-.53c.27-.66-.15-2.25,.12-3.38-.11,.08-.23,.15-.36,.21-.17-1.06-.21-2.14-.12-3.21,0-.2-.29-.53-.66-.91-.42,.98-.99,1.9-1.69,2.72-1.26,1.11-2.14,2.59-2.51,4.24h0c-.1,.42-.25,.82-.44,1.21-.23,.41-.36,.86-.38,1.33h0c.07,2.37-.08,4.75-.44,7.1-.16,.91-.49,1.78-.97,2.57l-.09-.09c-.2,.87-.58,1.69-1.13,2.4,0,0-.57-1.13-1.61-9.8-1.13-9.52-1.7-19.47-1.7-19.47h0c-.05-1.81,.22-3.61,.8-5.33,.81-2.08,2-3.99,3.52-5.63,.5-.53,1.24-.76,1.95-.61l-.38-.53c-.65-.87-1.41-1.81-2.06-2.67-4.65,8.2-4.51,18.03-4.51,18.03v1.04l-.82-.43c-2.28-1.23-4.43-2.68-6.43-4.33,0,.99-.16,4.37-.16,4.37v2.11c0,3.91,.71,13.52,3.89,20.1,.98,1.88,2.27,3.58,3.8,5.05,1.6,1.51,3.53,2.65,5.63,3.31l.48,.16c2.55,.81,5.32,.56,7.69-.69m-.18,2.72c.61-.52,1.47-.64,2.2-.3,.08-1.47,.24-2.93,.48-4.38-.21,.22-.45,.4-.72,.54-.06,0-.12-.07-.2-.16-.72,1.78-1.75,4.28-1.76,4.3m9.26,.84c-.1-2.12-.35-4.23-.73-6.32l-.1-.15-.18-.26c-.11,.38-.25,.76-.41,1.13-.14,.34-.35,.66-.61,.92-.65-.47-1.16-1.1-1.49-1.84-.31,.73-.82,1.35-1.46,1.8-.26-.26-.46-.58-.6-.92-.1-.2-.18-.41-.25-.62-.35,2.06-.58,4.13-.66,6.22-1.81-1.19-2.91,0-2.53,.83l.12,.2c.21,.29,.54,.46,.9,.46,.78,.02,1.54,.2,2.25,.52,1,.48,1.87,1.2,2.53,2.08,.66-.87,1.52-1.58,2.5-2.07,.71-.32,1.48-.5,2.25-.52,.35-.02,.68-.18,.89-.46,.05-.06,.09-.13,.12-.2,.37-.83-.72-2.03-2.53-.83m2.77-.84l-1.77-4.51c-.09,.15-.21,.29-.35,.39-.22-.11-.43-.26-.61-.43,.27,1.41,.45,2.84,.54,4.27,.73-.34,1.58-.22,2.19,.3m20.87-32.61c0-1.32-.1-3.46-.15-4.51-1.93,1.59-4,3-6.2,4.2l-1,.54v-.72c0-.08,.28-9.85-4.51-18.26-.29,.39-1.3,1.67-2.32,2.96,.66-.08,1.32,.16,1.78,.64,1.51,1.67,2.7,3.59,3.52,5.69,.58,1.71,.84,3.51,.79,5.32h0s-.57,9.95-1.71,19.47c-1.04,8.66-1.61,9.8-1.61,9.8-.54-.71-.92-1.53-1.13-2.4l-.09,.09c-.48-.79-.81-1.66-.97-2.57-.36-2.35-.51-4.72-.44-7.1h0c-.03-.47-.16-.92-.38-1.33-.19-.38-.34-.79-.44-1.21h0c-.38-1.62-1.25-3.07-2.5-4.17-.71-.88-1.31-1.86-1.76-2.9l-.06,.06c-.37,.29-.64,.68-.8,1.13,.22,1.14,.24,2.3,.07,3.45-.09-.06-.24-.2-.33-.27,.11,1.04-.38,2.25-.07,3.17l-.61-.08c.01,.05,.04,.1,.07,.15,.07,.11,.18,.2,.3,.26l.2,.1,.62,.21c.29-.64,.19-1.39-.26-1.93-.29-.36,.06-.87,.65-.61,.93,.41,1.77,.97,2.5,1.68,1.27,1.21,1.64,2.37,1.37,2.59-.18,.13-.43,.13-.62,0,.01,.04,.01,.09,0,.14-.08,.24-.29,.43-.54,.47h0c-.14,.19-.35,.26-.73,.25-.26-.02-.51-.09-.74-.21-.09-.05-.17-.11-.25-.18l-.23,.18c1.57,1.91,3.01,3.93,4.3,6.04,.56,1.03,1.02,2.1,1.39,3.21-.4,.1-.82,.1-1.22,0,.23,.57,.34,1.18,.33,1.79-.68,.03-1.36-.13-1.96-.46l.07,.35c.62,.44,1.31,.96,1.61,1.13-3.02,1.42-7.39,.78-7.47,.75l-.56-.08c0,.08-.07,.18-.11,.28,.29,.7,.98,2.33,1.13,2.65,1.98,1.04,4.25,1.39,6.44,.99,.56-.08,1.11-.23,1.63-.43,1.92-.8,3.68-1.94,5.18-3.38,1.55-1.44,2.86-3.12,3.89-4.98,3.38-6.51,3.89-16.19,3.89-20.1v-2.03"/><path class="cls-2" d="M3.44,47.33h1.76l3.54,10.85h-1.54l-.79-2.58H2.21l-.81,2.58H0l3.44-10.85Zm.84,1.27h0l-1.7,5.79h3.47l-1.77-5.79Z"/><path class="cls-2" d="M9.94,58.18v-10.85h3.54c.96-.13,1.91,.31,2.42,1.13,.27,.43,.42,.93,.43,1.44,.19,1.2-.61,2.33-1.8,2.56v.07c1.28,.03,2.3,1.09,2.27,2.37,0,.08,0,.15-.02,.23,0,2.78-2.04,3.05-3.27,3.05h-3.57Zm1.39-6.29h2.07c.93-.02,1.67-.79,1.66-1.72-.02-.93-.79-1.67-1.72-1.66h-2.01v3.38Zm0,5.09h1.95c1.02,.09,1.91-.67,2-1.68,0-.06,0-.12,0-.18,0-1.72-1.13-2.03-2.48-2.03h-1.48v3.89Z"/><path class="cls-2" d="M18.57,47.33h1.39v6.95c0,2.37,.72,2.97,2.03,2.97s2.03-.61,2.03-2.97v-6.95h1.39v6.88c0,3.01-1.13,4.19-3.38,4.19s-3.38-1.13-3.38-4.19l-.07-6.88Z"/><path class="cls-2" d="M30.42,47.33h3.38c1.23-.13,2.4,.54,2.92,1.66,.34,1.09,.5,2.24,.48,3.38,0,2.25-.21,3.65-.66,4.37-.59,.94-1.68,1.41-3.58,1.41h-2.53v-10.82Zm1.39,9.66h1.31c1.93,0,2.64-.73,2.64-3.24v-2.25c0-2.25-.69-3-2.13-3h-1.81v8.49Z"/><polygon class="cls-2" points="39.29 58.18 39.29 47.33 40.67 47.33 40.67 52.02 44.48 52.02 44.48 47.33 45.87 47.33 45.87 58.18 44.48 58.18 44.48 53.22 40.67 53.22 40.67 58.18 39.29 58.18"/><path class="cls-2" d="M50.46,47.33h1.76l3.54,10.85h-1.54l-.79-2.58h-4.19l-.81,2.58h-1.4l3.44-10.85Zm.84,1.27h0l-1.7,5.79h3.45l-1.75-5.79Z"/><path class="cls-2" d="M56.96,58.18v-10.85h3.54c.96-.13,1.91,.31,2.42,1.13,.27,.43,.42,.93,.43,1.44,.19,1.22-.64,2.37-1.86,2.57v.07c1.24-.02,2.27,.98,2.28,2.23,0,.13,0,.25-.03,.38,0,2.78-2.03,3.05-3.26,3.05h-3.53Zm1.39-6.3h2.02c.93-.02,1.67-.79,1.66-1.72-.02-.93-.79-1.67-1.72-1.66h-1.95v3.38Zm0,5.09h1.95c1.02,.09,1.91-.67,2-1.68,0-.06,0-.12,0-.18,0-1.72-1.13-2.03-2.49-2.03h-1.46v3.89Z"/><rect class="cls-2" x="65.82" y="47.33" width="1.39" height="10.86"/><path class="cls-2" d="M74.85,47.33h1.76l3.54,10.85h-1.54l-.79-2.58h-4.19l-.81,2.58h-1.4l3.44-10.85Zm.84,1.27h0l-1.69,5.79h3.47l-1.78-5.79Z"/><path class="cls-2" d="M86,50.32c.08-.55-.03-1.1-.32-1.58-.34-.29-.77-.45-1.22-.44-.66-.07-1.3,.26-1.63,.83,0,.12-.32,.39-.32,2.25v2.91c0,2.66,.87,2.97,1.94,2.97,.42,0,1.7-.16,1.71-2.25h1.43c0,3.38-2.37,3.38-3.06,3.38-1.36,0-3.38-.09-3.38-4.29v-3.06c0-3.06,1.35-3.93,3.49-3.93s2.97,1.13,2.84,3.21h-1.49Z"/><path class="cls-2" d="M93.98,50.32c.07-.55-.04-1.1-.32-1.58-.33-.3-.77-.47-1.22-.46-.66-.07-1.3,.26-1.63,.83,0,.12-.33,.39-.33,2.25v2.91c0,2.66,.88,2.97,1.95,2.97,.42,0,1.7-.16,1.71-2.25h1.49c0,3.38-2.37,3.38-3.08,3.38-1.35,0-3.38-.09-3.38-4.29v-3.04c0-3.06,1.35-3.93,3.49-3.93s2.97,1.13,2.84,3.21h-1.53Z"/><path class="cls-2" d="M97.14,54.21v-3.56c0-2.16,1.13-3.55,3.38-3.55s3.38,1.39,3.38,3.55v3.56c0,3.01-1.13,4.19-3.38,4.19s-3.38-1.13-3.38-4.19m5.42,.07v-3.67c0-2.25-1.57-2.35-1.99-2.35s-2.01,.08-2.01,2.35v3.67c0,2.37,.69,2.97,2.01,2.97s1.99-.61,1.99-2.97"/><path class="cls-2" d="M105.95,47.33h1.39v6.95c0,2.37,.72,2.97,2.04,2.97s2.03-.61,2.03-2.97v-6.95h1.39v6.88c0,3.01-1.13,4.19-3.38,4.19s-3.38-1.13-3.38-4.19l-.08-6.88Z"/><polygon class="cls-2" points="122.33 47.33 122.33 58.19 120.44 58.19 116.16 48.77 116.12 48.77 116.12 58.19 114.88 58.19 114.88 47.33 116.84 47.33 121.07 56.63 121.1 56.63 121.1 47.33 122.33 47.33"/><polygon class="cls-2" points="130.56 47.33 130.56 48.54 127.71 48.54 127.71 58.19 126.32 58.19 126.32 48.54 123.46 48.54 123.46 47.33 130.56 47.33"/><path class="cls-2" d="M132.96,47.33h1.76l3.53,10.85h-1.54l-.78-2.58h-4.22l-.81,2.58h-1.4l3.47-10.85Zm.83,1.27h0l-1.7,5.79h3.47l-1.77-5.79Z"/><path class="cls-2" d="M139.44,58.18v-10.85h3.52c.96-.13,1.91,.31,2.42,1.13,.27,.43,.42,.93,.44,1.44,.19,1.22-.65,2.37-1.87,2.57v.07c1.24-.02,2.27,.98,2.28,2.23,0,.13,0,.25-.03,.38,0,2.78-2.03,3.05-3.26,3.05h-3.5Zm1.39-6.3h2.02c.93-.02,1.68-.78,1.66-1.72-.02-.93-.78-1.68-1.72-1.66h-1.96v3.38Zm0,5.09h1.96c1.01,.09,1.9-.66,1.99-1.67,0-.06,0-.12,0-.19,0-1.72-1.13-2.03-2.48-2.03h-1.48v3.89Z"/><rect class="cls-2" x="147.73" y="47.33" width="1.39" height="10.86"/><polygon class="cls-2" points="151.06 58.18 151.06 47.33 152.45 47.33 152.45 56.99 156.43 56.99 156.43 58.18 151.06 58.18"/><rect class="cls-2" x="157.54" y="47.33" width="1.39" height="10.86"/><polygon class="cls-2" points="167.26 47.33 167.26 48.54 164.4 48.54 164.4 58.19 163.01 58.19 163.01 48.54 160.16 48.54 160.16 47.33 167.26 47.33"/><polygon class="cls-2" points="173.94 47.33 175.34 47.33 172.39 54.05 172.39 58.19 171 58.19 171 54.05 168.08 47.33 169.63 47.33 171.75 52.58 173.94 47.33"/><path class="cls-2" d="M181.74,47.33h1.78l3.53,10.85h-1.54l-.79-2.58h-4.19l-.81,2.58h-1.4l3.42-10.85Zm.83,1.27h0l-1.7,5.79h3.47l-1.77-5.79Z"/><path class="cls-2" d="M188.03,47.33h1.39v6.95c0,2.37,.72,2.97,2.03,2.97s2.04-.61,2.04-2.97v-6.95h1.37v6.88c0,3.01-1.13,4.19-3.38,4.19s-3.38-1.13-3.38-4.19l-.07-6.88Z"/><polygon class="cls-2" points="203 47.33 203 48.54 200.14 48.54 200.14 58.19 198.76 58.19 198.76 48.54 195.9 48.54 195.9 47.33 203 47.33"/><polygon class="cls-2" points="204.15 58.18 204.15 47.33 205.52 47.33 205.52 52.02 209.33 52.02 209.33 47.33 210.72 47.33 210.72 58.18 209.33 58.18 209.33 53.22 205.52 53.22 205.52 58.18 204.15 58.18"/><path class="cls-2" d="M212.43,54.21v-3.56c0-2.16,1.13-3.55,3.38-3.55s3.38,1.39,3.38,3.55v3.56c0,3.01-1.13,4.19-3.38,4.19s-3.38-1.13-3.38-4.19m5.42,.07v-3.67c0-2.25-1.57-2.35-2.01-2.35s-1.99,.08-1.99,2.35v3.67c0,2.37,.69,2.97,1.99,2.97s2.01-.61,2.01-2.97"/><path class="cls-2" d="M222.16,53.19v4.99h-1.39v-10.85h3.75c1.35-.09,2.51,.93,2.6,2.28,0,.14,0,.28,0,.43,.09,1.22-.77,2.3-1.98,2.48h0c1.25,.19,1.7,.62,1.78,2.79,.04,.96,.16,1.91,.37,2.84h-1.44c-.32-1.17-.46-2.39-.42-3.61-.02-.8-.69-1.42-1.48-1.4-.05,0-.11,0-.16,.01l-1.62,.03Zm0-1.21h2.07c.99,0,1.48-.86,1.48-1.8,.09-.81-.49-1.54-1.3-1.64-.06,0-.11,0-.17,0h-2.08v3.45Z"/><rect class="cls-2" x="228.98" y="47.33" width="1.39" height="10.86"/><polygon class="cls-2" points="238.69 47.33 238.69 48.54 235.83 48.54 235.83 58.19 234.45 58.19 234.45 48.54 231.59 48.54 231.59 47.33 238.69 47.33"/><polygon class="cls-2" points="245.37 47.33 246.77 47.33 243.82 54.05 243.82 58.19 242.43 58.19 242.43 54.05 239.51 47.33 241.06 47.33 243.19 52.58 245.37 47.33"/><path class="cls-2" d="M2.48,26.01c.23,0,.45-.09,.61-.26,.33-.34,.33-.88,0-1.22-.33-.34-.87-.35-1.21-.02l-.02,.02c-.33,.34-.33,.88,0,1.22,.16,.17,.39,.26,.62,.26"/><path class="cls-2" d="M5.35,26.01c.23,0,.45-.09,.61-.25,.33-.34,.33-.88,0-1.22-.16-.17-.38-.26-.61-.26-.23,0-.46,.09-.62,.26-.33,.34-.33,.88,0,1.22,.16,.17,.39,.26,.62,.26"/><path class="cls-2" d="M23.96,38.38c-.23,0-.45,.08-.61,.25-.17,.16-.26,.39-.26,.62,0,.23,.09,.45,.26,.61,.34,.33,.88,.33,1.22,0,.17-.16,.27-.38,.26-.61,0-.48-.39-.87-.87-.87h0"/><path class="cls-2" d="M47.86,34.39c.01,.12,.01,.25,0,.37-.02,.09-.06,.17-.12,.23-.09,.07-.21,.12-.33,.14-.2,.01-.41,.01-.61,0h-.95c.07-.25,.1-.51,.09-.77v-5.75h-1.34v5.75c0,.12,0,.24,0,.36-.02,.09-.06,.17-.12,.24-.1,.07-.22,.12-.35,.14-.22,.01-.44,.01-.65,0h-1.13c.06-.25,.09-.51,.08-.77v-5.75h-1.34v5.75c.02,.24-.09,.47-.3,.6-.39,.14-.8,.2-1.22,.17h-14.91v-6.42h-1.33v6.49H6.57c-.2,0-.3-.11-.3-.36v-7.5c-.42,.12-.98,.32-1.68,.6-.73,.29-1.41,.67-2.05,1.13-.67,.48-1.26,1.06-1.75,1.74-.49,.71-.75,1.57-.73,2.43,0,.38,.05,.76,.15,1.13,.1,.42,.3,.8,.59,1.13,.35,.37,.77,.66,1.24,.86,.67,.27,1.38,.41,2.1,.43l.1-1.32c-.76-.04-1.5-.25-2.16-.62-.49-.37-.75-.96-.69-1.57,0-.51,.13-1.01,.39-1.45,.25-.42,.56-.8,.92-1.13,.34-.32,.72-.6,1.13-.83,.41-.23,.77-.42,1.07-.56v5.57c-.03,.45,.11,.9,.39,1.25,.27,.29,.65,.45,1.05,.44H47.48c.27-.02,.54-.1,.79-.23,.27-.14,.5-.36,.65-.63,.2-.37,.29-.78,.27-1.19v-5.75h-1.33v5.69Z"/><path class="cls-2" d="M103.59,35.15h-2.25v-12.11h-1.33v12.11h-16.09v-7.3c-.54,.06-1.08,.16-1.61,.29-.71,.17-1.4,.44-2.04,.8-.68,.37-1.27,.87-1.76,1.46-.52,.63-.78,1.44-.75,2.25-.02,.51,.07,1.01,.25,1.49,.14,.38,.35,.73,.61,1.04h-11.39c-.16,0-.32-.02-.47-.07-.12-.04-.24-.11-.34-.19-.1-.06-.17-.14-.23-.24-.1-.17-.16-.35-.2-.54-.09-.31-.15-.63-.18-.96,0-.41-.11-.92-.16-1.57-.18-2.61-1.39-3.92-3.64-3.92-.51,0-1.02,.09-1.5,.27-.4,.15-.78,.36-1.13,.62l.81,1.05c.54-.38,1.18-.6,1.84-.62,.26,0,.51,.03,.77,.08,.26,.06,.5,.18,.71,.35,.25,.22,.44,.49,.56,.8,.17,.47,.28,.97,.3,1.48,.03,.71,.1,1.42,.21,2.12,.06,.46,.2,.92,.39,1.34h-12.39v-12.08h-1.36v13.36h53.7v-13.43h-1.33v12.11Zm-20.99,0c-.89,.02-1.78-.16-2.59-.54-.66-.41-1.02-1.16-.92-1.93,0-.44,.12-.88,.37-1.24,.25-.36,.56-.67,.92-.92,.35-.25,.73-.46,1.13-.63,.37-.15,.74-.28,1.13-.38l-.03,5.64Z"/><path class="cls-2" d="M116.6,41.76c-.23,0-.45,.09-.61,.26-.33,.34-.33,.88,0,1.22,.16,.17,.38,.26,.61,.26,.23,0,.46-.09,.62-.26,.33-.34,.33-.88,0-1.22-.16-.17-.39-.26-.62-.26"/><path class="cls-2" d="M113.72,41.76c-.49-.01-.9,.38-.91,.87-.01,.49,.38,.9,.87,.91,.49,.01,.9-.38,.91-.87,0-.24-.09-.48-.26-.65-.16-.17-.38-.26-.61-.26"/><path class="cls-2" d="M133.76,38.38c-.23,0-.45,.08-.61,.25-.17,.16-.26,.39-.26,.62,0,.23,.09,.45,.26,.61,.34,.33,.88,.33,1.22,0,.17-.16,.26-.38,.26-.61,0-.23-.09-.46-.26-.62-.16-.16-.38-.25-.61-.25"/><path class="cls-2" d="M152.92,28.26c-.87,.24-1.71,.58-2.5,1.03-.67,.38-1.28,.86-1.83,1.41-.47,.47-.88,.98-1.24,1.53v-9.18h-1.32v12.11h-11.6v-6.49h-1.33v6.49h-10.94l-2.47-7.89c-.65,.08-1.28,.28-1.87,.57-.51,.26-.97,.61-1.34,1.05-.34,.41-.61,.88-.79,1.39-.18,.53-.27,1.09-.27,1.66,0,.57,.11,1.13,.35,1.64,.21,.47,.49,.91,.82,1.31,.3,.35,.64,.67,1.01,.95,.34,.27,.63,.48,.88,.65l.07,.1c-.05,.23-.11,.46-.19,.68-.11,.31-.28,.6-.51,.84-.28,.3-.62,.53-.99,.7-.51,.22-1.06,.32-1.61,.3-.28,0-.56-.05-.83-.14-.3-.08-.58-.22-.82-.41-.26-.19-.47-.43-.62-.71-.17-.31-.26-.66-.25-1.01v-1.67h-1.32v1.71c-.01,.56,.11,1.11,.36,1.61,.23,.44,.55,.82,.95,1.13,.74,.54,1.62,.84,2.53,.86,.75,.02,1.5-.13,2.19-.43,.55-.28,1.04-.66,1.44-1.13,.35-.4,.62-.86,.8-1.35,.16-.41,.24-.85,.25-1.3l-.33-.54c-.06-.09-.13-.17-.21-.24-.1-.08-.21-.17-.37-.27-.59-.41-1.12-.9-1.58-1.45-.45-.52-.7-1.19-.69-1.88,0-.31,.04-.62,.12-.92,.09-.31,.22-.61,.39-.89,.18-.28,.4-.54,.65-.75,.26-.22,.57-.39,.89-.51l2.39,7.6h35.66v-8.57h-.69c-1.1-.02-2.19,.12-3.26,.41m2.61,6.9h-8.07c.16-.5,.35-.99,.59-1.46,.34-.69,.79-1.31,1.34-1.85,.7-.68,1.51-1.24,2.39-1.64,1.19-.55,2.47-.87,3.77-.95l-.02,5.9Z"/><path class="cls-2" d="M150.17,26.83c.23,0,.45-.09,.61-.26,.17-.16,.26-.38,.26-.61,0-.23-.09-.45-.26-.61-.16-.16-.38-.25-.61-.25-.23,0-.45,.08-.61,.25-.17,.16-.26,.38-.26,.61,0,.23,.09,.45,.26,.61,.15,.17,.38,.27,.61,.26"/><path class="cls-2" d="M191.19,38.38c-.23,0-.45,.08-.61,.25-.19,.16-.3,.4-.3,.65,0,.23,.09,.45,.26,.61,.34,.33,.88,.33,1.22,0,.17-.16,.26-.38,.26-.61,0-.23-.09-.46-.26-.62-.16-.16-.38-.25-.61-.25"/><path class="cls-2" d="M191.88,28.66h-1.33v6.49h-25.6v-7.48c-.88,.07-1.74,.27-2.56,.59-.73,.26-1.41,.64-2.02,1.13-.55,.46-1,1.03-1.32,1.67-.31,.62-.48,1.31-.47,2.01-.04,.95,.38,1.86,1.13,2.44,1.01,.68,2.22,1,3.44,.92h.46v1.75c-.01,.42-.09,.84-.24,1.24-.13,.34-.34,.64-.63,.87-.37,.23-.8,.34-1.23,.32v1.32c.62,.03,1.24-.11,1.79-.42,.44-.28,.8-.67,1.04-1.13,.25-.48,.41-1,.48-1.54,.08-.59,.12-1.18,.12-1.78v-.65h26.93v-7.73Zm-28.24,6.49h-.52c-.85,.07-1.7-.13-2.43-.56-.5-.35-.78-.92-.77-1.52,0-.89,.36-1.75,1.01-2.35,.76-.72,1.69-1.22,2.7-1.46v5.9Z"/><path class="cls-2" d="M195.24,20.83c.39,0,.78,.09,1.13,.26l.26-.64c-.44-.18-.9-.28-1.37-.28-.34,0-.67,.1-.95,.28-.3,.23-.46,.6-.43,.98,0,.2,.03,.4,.1,.59,.07,.2,.14,.31,.2,.34h-1.13v.66h3.38v-.63h-.63c-.33,0-.65-.07-.95-.21-.24-.15-.39-.42-.37-.71-.02-.18,.05-.36,.2-.47,.16-.09,.34-.14,.53-.12"/><rect class="cls-2" x="194.06" y="24.11" width="1.32" height="12.37"/><path class="cls-2" d="M203.04,37.03v1.33c-.02,.39-.12,.77-.27,1.13-.13,.32-.36,.6-.64,.8-.33,.22-.73,.33-1.13,.32v1.32c.65,.03,1.29-.12,1.86-.44,.44-.28,.79-.67,1.04-1.13,.24-.49,.4-1.03,.46-1.58,.07-.57,.1-1.14,.1-1.71v-8.43h-1.33l-.09,8.39Z"/><path class="cls-2" d="M203.71,24.8c-.23,0-.45,.08-.61,.25-.17,.16-.26,.39-.26,.62,0,.23,.09,.45,.26,.61,.16,.16,.38,.25,.61,.25,.23,0,.44-.08,.6-.25,.16-.16,.25-.38,.25-.61,0-.23-.08-.46-.25-.62-.15-.17-.37-.26-.6-.25"/><path class="cls-2" d="M246.1,34.99c-.34-.1-.55-.41-.65-.91s-.2-1.34-.32-2.49c-.02-1.07-.39-2.1-1.06-2.94-.67-.68-1.61-1.04-2.57-.98-.52,0-1.03,.09-1.51,.27-.4,.16-.78,.37-1.13,.62l.82,1.05c.53-.38,1.17-.6,1.83-.62,.26,0,.51,.03,.77,.08,.26,.06,.51,.18,.71,.35,.26,.21,.45,.49,.56,.8,.18,.47,.29,.97,.3,1.48,0,.87,.12,1.57,.21,2.12,.06,.46,.2,.92,.39,1.34h-17.01v-7.48c-.24-.08-.48-.14-.73-.19l-.84-.17c-.28,0-.57-.09-.87-.11h-.79c-.42,0-.84,.03-1.26,.09-.44,.07-.86,.19-1.27,.35-.41,.17-.79,.41-1.13,.7-.38,.31-.69,.7-.92,1.13l1.13,.65c.32-.61,.85-1.07,1.5-1.28,.62-.21,1.28-.32,1.94-.32,.38,0,.75,.02,1.13,.07,.33,0,.61,.09,.86,.14v6.47h-1.13v-4.36c-.01-.17-.12-.32-.27-.38-.22-.1-.46-.16-.71-.17-.26-.06-.52-.09-.79-.11-.24-.01-.49-.01-.73,0-.52-.01-1.04,.08-1.52,.26-.4,.15-.76,.39-1.06,.7-.27,.29-.49,.63-.62,1-.14,.36-.21,.74-.21,1.13-.04,.72,.21,1.43,.7,1.96h-12.11v-12.09h-1.32v13.35h40.36l.06-1.26-.72-.21Zm-22.42,.14c-.83,0-1.66-.17-2.43-.48-.51-.27-.8-.82-.74-1.4-.02-.5,.17-.99,.52-1.35,.44-.37,1-.55,1.57-.51,.2-.01,.4-.01,.6,0,.17,.02,.33,.05,.5,.09v3.65Z"/><path class="cls-2" d="M242.1,38.16c-.49-.01-.9,.38-.91,.87-.01,.49,.38,.9,.87,.91,.49,.01,.9-.38,.91-.87,0-.24-.09-.48-.26-.65-.16-.17-.38-.26-.61-.26"/><path class="cls-2" d="M313.41,39.15c.14-14.78-3.11-23.06-5.93-27.12,.97-1.27,1.55-2.05,1.6-2.1,.47-.49,1.1-.8,1.78-.87,.23-1.45,.57-2.87,1-4.27-1.19,.85-2.45,1.58-3.77,2.2,.13,.67,0,1.36-.36,1.94l-1.24,1.64c-1.34-1.6-2.96-2.94-4.78-3.97-.53-.3-1.07-.58-1.62-.83,.04-.77-.23-1.51-.75-2.07-.07-.52-.4-.98-.88-1.21h0c-.56-.09-1.13,.07-1.57,.43-.81,.12-1.55,.52-2.1,1.13-1.96-.4-3.94-.66-5.94-.78-.24-1-.92-1.85-1.85-2.3-.3-.54-.83-.9-1.44-.98h0c-.61,.08-1.15,.44-1.45,.98-.93,.46-1.6,1.31-1.85,2.32-1.99,.11-3.97,.37-5.93,.78-.55-.61-1.3-1-2.11-1.13-.43-.36-1-.52-1.55-.43h0c-.48,.22-.81,.68-.87,1.21-.53,.56-.8,1.31-.75,2.07-.59,.27-1.13,.54-1.63,.83-1.81,.98-3.4,2.3-4.68,3.91l-1.13-1.49c-.37-.58-.5-1.28-.36-1.95-1.32-.61-2.59-1.34-3.77-2.19,.43,1.4,.77,2.83,1.01,4.27,.67,.07,1.3,.38,1.77,.87,0,0,.56,.72,1.42,1.85-2.84,4.03-6.13,12.39-5.99,27.26,0,1.37-.57,14.26,3.63,22.95,1.04,1.98,2.39,3.78,4.01,5.33,1.88,1.79,4.18,3.07,6.69,3.73l.32,.08c2.28,.73,4.75,.64,6.97-.26l-.16,.39c-.06,.11-.11,.23-.15,.35-.59,1.59-.19,3.24,1.96,3.5,.67,.02,1.34,.16,1.96,.43,.66,.33,1.25,.77,1.75,1.31,.44,.47,.82,1,1.13,1.57h0c.31-.57,.69-1.09,1.13-1.57,.5-.54,1.1-.98,1.76-1.31,.62-.26,1.28-.41,1.95-.43,2.16-.26,2.56-1.9,1.97-3.5l-.15-.36-.16-.38c1.5,.87,6.1,1.54,10.52-1.26,3.01-1.81,5.45-4.44,7.01-7.59,4.2-8.69,3.64-21.83,3.62-23.02m-19.52-11.9c-.07,.12-.18,.22-.3,.29-.22,.13-.47,.19-.72,.17-.28,.01-.55-.12-.7-.36-.57-.84-1.03-1.74-1.37-2.69-.46-1.13-.38-.91-1.06-2.56-.33-.86-.74-1.68-1.23-2.46-.48-.6-1.07-1.1-1.74-1.48-.5-.19-1.03-.31-1.57-.34-.87-.05-1.74,.02-2.59,.21-.49,.1-.94,.34-1.3,.69-.1,.14-.24,.26-.39,.34-.4,.16-.78,.37-1.13,.64-.69,.41-.92,1.3-.51,1.99,.06,.09,.12,.18,.2,.26h0c0-.28,0-.54,.06-.52,.39,.21,.83,.29,1.27,.24,.54-.08,.88,.74,.88,.74l.09-.24c.07,.23,.18,.44,.32,.63,0,0,.08-.09,.08-.12,.17,.2,.43,.33,.45,.66-.03,.37-.22,.71-.52,.94-.15,.14-1,.83-1.9,1.77-.47,.48-.71,.77-1.19,1.3-.17,.24-.42,.4-.71,.44h-.11c-.23,0-.45-.1-.6-.27l-6.92-9.15c4.01-3.92,10.66-4.51,12.31-4.44,.39,0,.82,.34,.34,.98,.78,.16,1.59,0,2.25-.44,.66,.44,1.47,.6,2.25,.44-.5-.64-.06-.96,.34-.98,1.64-.12,7.95,.18,12.39,4.51-2.15,2.86-5.04,6.47-6.59,8.72"/><path class="cls-1" d="M312.52,35.11c-1.93,1.58-4,2.98-6.2,4.18l-1,.54v-.72c0-.08,.28-9.85-4.51-18.27-.29,.41-1.3,1.68-2.32,2.97,.66-.08,1.32,.16,1.78,.64,1.51,1.67,2.7,3.59,3.52,5.69,.58,1.71,.84,3.51,.79,5.32h0s-.59,9.95-1.71,19.47c-1.04,8.66-1.61,9.79-1.61,9.79-.55-.7-.93-1.52-1.13-2.39l-.1,.09c-.48-.79-.81-1.67-.97-2.58-.36-2.34-.51-4.72-.44-7.09h0c-.03-.47-.16-.92-.38-1.33-.19-.39-.34-.8-.44-1.22h0c-.38-1.61-1.24-3.06-2.48-4.16-.72-.88-1.31-1.85-1.77-2.9l-.06,.06c-.37,.29-.64,.68-.79,1.13,.19,1.14,.19,2.31,0,3.45-.09-.06-.24-.2-.33-.27,.11,1.04-.38,2.25-.07,3.17l-.61-.08,.06,.15c.08,.11,.19,.2,.32,.26l.2,.1,.62,.21c.29-.64,.18-1.4-.27-1.94-.28-.35,.07-.86,.66-.6,.93,.4,1.78,.97,2.5,1.68,1.27,1.21,1.64,2.37,1.37,2.59-.18,.13-.43,.13-.62,0,.01,.04,.01,.09,0,.14-.09,.24-.29,.42-.54,.47h0c-.12,.19-.35,.26-.73,.25-.26-.02-.51-.09-.74-.21-.09-.05-.18-.11-.25-.19l-.23,.19c1.57,1.91,3.01,3.93,4.3,6.04,.58,1.02,1.06,2.1,1.44,3.21-.4,.1-.82,.1-1.22,0,.23,.57,.34,1.18,.33,1.79-.68,.03-1.36-.13-1.96-.46,0,.12,0,.24,.07,.35,.62,.44,1.31,.95,1.61,1.13-3.02,1.41-7.39,.75-7.47,.74l-.56-.08c0,.08-.07,.18-.11,.28,.3,.7,.98,2.32,1.13,2.66,1.98,1.03,4.25,1.38,6.44,.99,.56-.09,1.1-.24,1.63-.44,1.92-.8,3.68-1.95,5.18-3.38,1.55-1.44,2.86-3.12,3.89-4.98,3.38-6.51,3.89-16.19,3.89-20.1v-2.03c0-1.32-.09-3.46-.14-4.51"/><path class="cls-1" d="M279.98,69.38c.14-.36,.73-1.8,1.05-2.53,0-.14-.09-.26-.12-.38-.42,.07-.83,.14-1.25,.17s-4.44,.66-7.46-.74c.37-.26,1.06-.82,1.99-1.42v-.19c-.6,.33-1.28,.49-1.96,.45,0-.61,.1-1.22,.33-1.79-.38,.09-.78,.1-1.16,.01,.38-1.11,.86-2.19,1.44-3.21,.97-1.64,2.06-3.21,3.28-4.68,.11-.39,.31-.75,.59-1.05l.18-.2-.36-.29c-.08,.09-.18,.17-.29,.24-.23,.12-.48,.2-.74,.21-.27,.06-.56-.04-.74-.25h0c-.25-.05-.46-.23-.54-.47-.01-.04-.01-.09,0-.14-.18,.09-.4,.06-.55-.08-.27-.23,.1-1.4,1.37-2.6,.73-.7,1.57-1.27,2.5-1.67,.6-.27,.95,.25,.65,.6-.45,.54-.56,1.3-.26,1.94,.19-.06,.38-.12,.56-.2,.2-.06,.37-.18,.5-.35,.03-.04,.05-.08,.07-.12h-.53c.27-.66-.15-2.25,.12-3.38-.11,.08-.23,.15-.36,.21-.17-1.06-.21-2.14-.12-3.21-.13-.36-.36-.67-.65-.91-.43,1-1,1.93-1.69,2.76-1.26,1.11-2.14,2.59-2.51,4.24h0c-.1,.42-.25,.83-.44,1.22-.23,.41-.36,.86-.38,1.33h0c.07,2.37-.08,4.74-.44,7.09-.16,.91-.49,1.78-.97,2.57l-.09-.09c-.2,.87-.58,1.69-1.13,2.4,0,0-.57-1.13-1.6-9.79-1.13-9.53-1.71-19.48-1.71-19.48h0c-.05-1.81,.22-3.61,.8-5.33,.82-2.08,2.01-3.99,3.52-5.63,.5-.53,1.24-.76,1.95-.61l-.38-.53c-.65-.87-1.41-1.83-2.06-2.67-4.65,8.2-4.51,18.03-4.51,18.03v1.04l-.81-.43c-2.29-1.22-4.45-2.67-6.44-4.33,0,.99-.16,4.37-.16,4.37v2.06c0,3.91,.71,13.52,3.9,20.1,.97,1.88,2.25,3.59,3.79,5.05,1.6,1.51,3.53,2.65,5.63,3.31l.48,.16c2.56,.81,5.33,.56,7.71-.69l.03-.09Z"/><path class="cls-1" d="M281.96,71.86c.08-1.47,.24-2.93,.48-4.38-.21,.22-.45,.4-.72,.54-.06,0-.12-.07-.2-.16-.72,1.78-1.75,4.28-1.76,4.3,.61-.52,1.47-.64,2.2-.3"/><path class="cls-1" d="M289.03,73.01c-.1-2.12-.35-4.23-.73-6.32l-.1-.15-.18-.26c-.11,.38-.25,.76-.41,1.13-.14,.34-.35,.66-.61,.92-.65-.46-1.17-1.1-1.49-1.84-.31,.73-.82,1.35-1.46,1.8-.26-.26-.47-.58-.61-.92-.09-.21-.17-.42-.24-.62-.35,2.06-.58,4.13-.66,6.22-1.8-1.19-2.91,0-2.53,.83l.12,.2c.21,.29,.54,.46,.9,.46,.78,.02,1.54,.2,2.25,.52,1,.48,1.87,1.2,2.53,2.08,.66-.86,1.51-1.56,2.48-2.05,.71-.32,1.48-.5,2.25-.52,.35-.02,.68-.18,.89-.46,.05-.06,.09-.13,.12-.2,.37-.83-.72-2.03-2.53-.83"/><path class="cls-1" d="M289.68,68.02c-.23-.11-.43-.25-.61-.43,.27,1.41,.45,2.84,.54,4.27,.73-.34,1.58-.22,2.19,.3l-1.77-4.51c-.09,.15-.21,.29-.35,.39"/><path class="cls-3" d="M298.15,37.13c-.1,.56-.44,1.05-.94,1.33-.3-.96-.48-1.72,.87-4.51-.92,2.76-.53,3.68-.53,3.68,.23-.11,.44-.27,.6-.47m-1.5-1.93s-.32-.63,.51-3.04c-1.52,2.25-.86,3.89-.86,3.89,.5-.28,.87-.75,1-1.31-.17,.19-.4,.34-.65,.41m5.44-4.1c-.25,2.42-.45,2.93-.71,3.38-.18-.18-.31-.4-.39-.64-.09,.52,.06,1.06,.41,1.46,.51-.63,.87-1.97,.7-4.17m-.48-1.62c-.38,2.72-.81,3.38-1.13,3.8-.2-.25-.34-.53-.42-.83-.13,.59,0,1.2,.38,1.67,.93-1.36,1.33-3,1.13-4.63m-2.02,2.61c-.16-.47-.22-.97-.19-1.46-.36,.76-.32,1.65,.11,2.38,.98-1.3,1.48-2.89,1.42-4.51-.14,1.29-.6,2.53-1.34,3.59m-.97-1.54c-.12-.63-.15-1.27-.09-1.9-.43,.91-.45,1.95-.08,2.88,1.05-1.16,1.65-2.65,1.7-4.21-.21,1.2-.74,2.31-1.53,3.23m3.3,4.59c0,.36,.16,.71,.45,.92,.54-.94,.71-2.04,.48-3.1-.01,.85-.2,1.69-.56,2.46,0,0-.32-.15-.37-.28m.92,.84c0,.32,.17,.61,.43,.79,.43-.84,.54-1.82,.32-2.74,.02,.78-.14,1.55-.46,2.25,0,0-.24-.16-.28-.27m-33.11-1.46c-.26-.42-.46-.92-.7-3.38-.18,2.2,.18,3.54,.69,4.18,.35-.4,.5-.95,.41-1.48-.08,.24-.22,.46-.39,.64m.89-1.13c-.29-.46-.73-1.13-1.13-3.8-.2,1.63,.2,3.27,1.13,4.63,.37-.47,.51-1.08,.38-1.67-.08,.3-.23,.59-.43,.83m.92-1.13c-.75-1.08-1.2-2.33-1.33-3.64-.06,1.62,.43,3.21,1.41,4.51,.44-.72,.48-1.61,.12-2.38,.02,.5-.05,.99-.2,1.46m.98-1.54c-.8-.91-1.34-2.03-1.54-3.23,.04,1.56,.65,3.06,1.7,4.21,.38-.93,.35-1.98-.08-2.88,.06,.64,.03,1.28-.08,1.9m-3.67,4.88c-.36-.77-.56-1.61-.57-2.47-.21,1.05-.04,2.15,.48,3.09,.29-.22,.45-.55,.45-.91,0,.14-.36,.29-.36,.29m-.84,.82c-.33-.71-.48-1.48-.46-2.25-.23,.92-.12,1.89,.32,2.74,.26-.18,.42-.47,.43-.79,0,.11-.28,.27-.28,.27m5.55,1.34c-.23-.11-.44-.27-.6-.47,.1,.56,.44,1.05,.95,1.33,.29-.97,.47-1.72-.88-4.51,.94,2.76,.53,3.68,.53,3.68m.9-2.4c-.25-.07-.48-.21-.65-.41,.15,.54,.51,.99,1,1.26,0,0,.66-1.6-.86-3.89,.83,2.4,.51,3.03,.51,3.03m6.82,11.68c0-.98-.22-1.95-.64-2.84-.09,.17-.14,.37-.14,.56-.34-.48-.56-1.02-.65-1.6-.1,.58-.28,1.15-.52,1.69,.2-.02,.39-.09,.55-.2,.23,1.05,1.13,1.27,1.4,2.39m9.08-2.25c0-.2-.05-.39-.15-.56-.42,.89-.64,1.86-.63,2.84,.3-1.13,1.13-1.35,1.4-2.38,.16,.11,.35,.18,.54,.19-.23-.54-.4-1.11-.51-1.69-.09,.58-.32,1.12-.65,1.6m-6.76-1.24c-.15-.87-.46-1.7-.9-2.46-.11,.92,.23,1.83,.9,2.46m3.38,1.37c.53-.91,.79-1.96,.73-3.01-.5,.93-.7,1.98-.59,3.03m-1.13,.72c.29-.67,.27-1.43-.06-2.08-.27,.67-.25,1.43,.06,2.08m-.83-2.25c.28-.77,.23-1.63-.16-2.35-.27,.77-.21,1.62,.16,2.35m5.97-7.64c-.41,.89-.7,1.83-.83,2.81,.19-.17,1.13-2.41,.83-2.81m0-2.53s.87-1.51,.37-2.33c-.56,.12-.35,2.34-.37,2.33m-2.47,3.65c.77-.78,1.23-1.81,1.3-2.91-.23,.65-.7,1.2-1.31,1.53-.34-.25-.6-.61-.73-1.01-.15,.87,.13,1.76,.74,2.39m2.64-1.85c.36-.56,.86-1.39,.45-1.93-.19,.63-.34,1.27-.45,1.93m-4.07,6.33c.48-.82,.72-1.76,.7-2.7-.51,.8-.76,1.75-.7,2.7m1.93-1.71c.83-.87,1.16-2.11,.87-3.28-.54,1.01-.83,2.13-.87,3.28m-1.72-3.45c-.19,.72-.58,1.38-1.13,1.88-.34-.32-.62-.7-.82-1.13-.12,.91,.28,1.82,1.04,2.34,.74-.84,1.08-1.96,.94-3.06m-3.47,3.3c-.51-.32-.94-.75-1.26-1.26,.31,.96,.87,1.81,1.62,2.48,.51-1.03,.6-2.21,.23-3.3-.11,.71-.33,1.41-.65,2.05m-4.69-8.86c-.1-.64,.7-1.24,.42-2.25-.58,.6-.75,1.49-.42,2.25m1.61,7.64c.3,.54,.68,1.03,1.13,1.45-.55-.84-1-2.41-1.55-2.84,.01,.49,.15,.97,.41,1.39m-.35-3.49c-.3,1.31,1,2.56,1,2.58-.02-.95-.37-1.87-1-2.58m.92-2.47c.01,.57-.03,1.13-.14,1.69-.32-.12-.6-.32-.82-.59,.32,.67,.76,1.29,1.28,1.81,.22-.98,.1-2.01-.33-2.92m-.57-3.38c.38-.97,.84-1.91,1.35-2.82-.98,.58-1.51,1.69-1.35,2.82m-1.13,5.73c-.02-.98-.24-1.94-.64-2.83-.05,.98,.17,1.96,.64,2.83m3.28-4.33c-.88,1.13,.47,2.48,.47,2.49s.11-2.08-.47-2.49m.65-3c-.78,.46-1.04,1.46-.58,2.24,.04,.06,.08,.12,.12,.17,.27-.78,.42-1.59,.46-2.41m.77,8.83c.55-.89,.74-1.96,.53-2.99-.04,.66-.35,1.27-.86,1.69-.34-.23-.61-.56-.75-.95-.01,.89,.41,1.73,1.13,2.25m6.67-8.68c.11,.89,.38,1.75,.8,2.55,.28-.93-.04-1.94-.8-2.55m-1.77-2.93c-.12,.63,.9,1.59,.89,1.59,.08-.67-.28-1.31-.89-1.59m1.49,4.81c-.1,.72-.42,1.38-.91,1.92-.33-.28-.63-.59-.89-.92,.06,.83,.38,1.62,.92,2.25,.81-.85,1.14-2.05,.88-3.2m-2.81-2.59c-.52,.57,0,1.7,.27,2.72,.28-.5,.62-2.17-.27-2.72m.46-1.6c.06-.78-.51-1.47-1.3-1.53-.08,.59,.92,.94,1.3,1.53m-1.25-2.13c.26,.27,1.13,.46,1.55,.89-.08-.62-.65-1.05-1.26-.97-.1,.01-.2,.04-.29,.08m-1.13,3.24c-.47,.38-.6,1.05-.3,1.58,0,0,.97-1.05,.3-1.58m1.13,8.22c.72-.79,1.12-1.81,1.13-2.87-.32,.55-.73,1.05-1.19,1.49-.36-.26-.69-.57-.98-.91,.1,.85,.48,1.64,1.07,2.25m-1.49-5.33c-.51,.84-.51,1.9,0,2.74,0,0,.62-1.87,0-2.74m.3-9.57c.25,.25,1.03,.57,1.46,.98-.06-.66-.64-1.03-1.46-.98m.41,.78c-.36-.41-.84-.69-1.37-.79,.28,.49,.81,.79,1.37,.79m1.62,1.36c-.25-.44-.69-.75-1.19-.82,.18,.21,.32,.44,.43,.69-.23,.08-.47,.13-.71,.15,.46,.24,1.01,.24,1.48,0m-7.05-1.94c-.08,0-.14,.26,.11,.27s.26-.23,.26-.23c0,0-.27-.11-.37,0m6.83-13.37l-.68-.5c-.23,.16-.48,.37-.65,.51l.64,.47c.27-.19,.38-.28,.69-.48m-4.18,12.8c.05,.14,.05,.29,0,.43-.02,.31-.25,.57-.56,.62-.36,.11-.75-.1-.85-.47-.01-.05-.02-.09-.03-.14,0-.13,.03-.25,.08-.37-.14,0-.15,.11-.28,.29s-.21,.1-.42,.23c.06-.35,.29-.65,.61-.81,1.1-.28,2.26-.17,3.28,.32-.37-.04-.75-.07-1.13-.07h-.72m-.21,0h-.46s.23,.19,.3,.23c.07,.02,.14-.02,.17-.08v-.19m5.44-9.59c-4.22-.18-8.45,.15-12.6,1-.15-.4-.35-.78-.6-1.13-.82-.88-1.13,.08-1.13,.19,1.04,.06,1.22,.59,1.22,.59-.23,.42-.58,.77-1,.99-.52,.35-1.13,.57-1.76,.62-1.95,.09-1.42-1.94-.24-2.76-.16,.19-.84,1.25-.42,1.79s2.25,.11,2.72-.44c-.39-.25-.87-.33-1.32-.23,.1-.77,.51-1.47,1.13-1.94,.7,.23,1.28,.73,1.61,1.4,2.71-.54,5.46-.86,8.22-.95-.07-.48-.24-2.35-.25-2.47,0-.3,.18-.44,.38-.56,.18,.36,.5,.62,.89,.73-.17,.18-.37,.34-.57,.48,0,.37,.06,1.05,.07,1.33,.63-.27,1.29-.49,1.96-.64,.28-.07,.57-.1,.86-.08,.27,.04,.53,.15,.75,.32,.18,.15,.29,.37,.3,.6,.01,.4-.06,.81-.2,1.18m-.66-1.22c-.41-.65-1.89-.07-2.84,.33h2.87c.05-.11,.05-.23,0-.34m-13.47,3.48l-.57-.17c-.15,.21-.29,.5-.39,.66l.79,.26,.29-.46,.56,.17,.44-.66-.82-.26c-.1,.15-.2,.32-.29,.46m23.77-2.4c.63,0,1.22,.1,1.49-.19-.38-.11-.8-.21-.94-.42,.17-.14,.42,.06,.54,.16l.24-.23c-.36-.28-.88-.21-1.15,.15-.01,.02-.03,.04-.04,.06,.13,.06,.25,.13,.36,.21-.17,.06-.34,.15-.5,.25m-.37,1.18c-.26,.61-.48,1.22-.78,1.75,.18,.08,.42-.07,.59-.18,.78-.7,1.36-1.6,1.67-2.6-.24,.04-.48,.11-.71,.2-.38,.13-.66,.45-.77,.83m-5.96,.28l.55,.56,.75-.41c-.21-.21-.35-.36-.59-.57-.25,.12-.54,.3-.72,.42m5.33-.61c-.16,.36-.38,.68-.65,.96-1.58-.54-3.21-.92-4.87-1.13-.38,.48-.89,.85-1.46,1.06-.68-.08-1.34-.27-1.95-.56h.64c.73-.02,1.45-.23,2.08-.61-1.13-.18-1.43-.5-.88-1.24,.26-.34,.69-.95,1.3-.79s.61,.81,.55,1.33c1.5,.24,2.98,.61,4.42,1.13,.09-.37-.16-.56-.32-.83,.22-.23,.47-.43,.73-.61,.37,.35,.52,.87,.41,1.36m-6.42-1.74c-.14,.09-.26,.22-.34,.37,.1,.16,.3,.23,.62,.27h.17c.15-.34-.17-.75-.45-.65m-14.49,2.76l.77,.33,.52-.62c-.29-.12-.48-.23-.78-.34-.18,.2-.35,.41-.51,.63m33.19,50.7c-1.56,3.15-3.99,5.78-7.01,7.59-4.43,2.81-9.01,2.13-10.52,1.26l.16,.38,.15,.36c.59,1.6,.19,3.26-1.97,3.5-.67,.02-1.33,.16-1.95,.43-.66,.32-1.26,.77-1.76,1.31-.43,.48-.81,1-1.13,1.57h0c-.31-.57-.69-1.09-1.13-1.57-.5-.54-1.09-.98-1.75-1.31-.62-.26-1.29-.41-1.96-.43-2.15-.25-2.55-1.92-1.96-3.5,.04-.12,.09-.24,.15-.35l.15-.39c-2.22,.91-4.68,1-6.96,.26l-.32-.08c-2.51-.69-4.81-2.01-6.68-3.83-1.64-1.55-3.02-3.36-4.08-5.35-4.2-8.69-3.61-21.58-3.63-22.95-.14-14.88,3.17-23.23,5.99-27.26-.86-1.13-1.37-1.81-1.42-1.85-.47-.49-1.09-.8-1.77-.87-.24-1.44-.58-2.87-1.01-4.27,1.19,.85,2.45,1.58,3.77,2.2-.14,.67-.01,1.36,.36,1.94l1.13,1.49c1.29-1.61,2.9-2.94,4.72-3.91,.51-.29,1.05-.56,1.63-.83-.05-.77,.23-1.52,.75-2.07,.06-.53,.39-.98,.87-1.21h0c.56-.09,1.13,.07,1.55,.44,.81,.12,1.56,.52,2.11,1.13,1.95-.4,3.93-.66,5.93-.78,.25-1.01,.93-1.85,1.86-2.31,.3-.54,.84-.9,1.45-.98h0c.61,.08,1.14,.44,1.44,.98,.93,.46,1.61,1.31,1.85,2.32,2,.11,3.98,.37,5.94,.78,.54-.61,1.29-1.01,2.1-1.13,.43-.37,1-.53,1.57-.44h0c.48,.22,.81,.68,.88,1.21,.52,.56,.8,1.31,.75,2.07,.59,.27,1.13,.54,1.62,.83,1.82,1.03,3.43,2.37,4.78,3.97l1.24-1.64c.37-.58,.5-1.27,.36-1.94,1.32-.62,2.59-1.35,3.77-2.2-.43,1.4-.77,2.83-1.01,4.27-.67,.07-1.3,.38-1.77,.87,0,0-.64,.82-1.6,2.1,2.82,4.06,6.06,12.39,5.93,27.12,0,1.13,.59,14.33-3.62,23.02m-1.32-46.74c-1.17,.26-2.36,.38-3.56,.34-.57,1.08-.84,2.3-.79,3.53-.57-.13-1.08-.43-1.49-.84l-1.32,1.76c3.07,5.58,4.7,11.84,4.74,18.21,2.26-1.27,4.41-2.74,6.4-4.41-.44-7.72-1.62-13.52-3.99-18.58m-7.4,23.24c-.13,.82-.09,1.65,.11,2.46,.46-.61,.8-1.3,1.01-2.03,0,.68,.14,1.35,.39,1.97,.48-1.31,.78-2.68,.88-4.07,0,0,0,.08,.3,.18,.23-1.56,.2-3.14-.11-4.69-.55-2.69-1.81-5.19-3.64-7.24-1.24-1.48-2.25-.81-3.38,.34-1.7,1.85-2.07,2.67-4.1,3.04h0c-.2,0,0,.14,.35,.14,2.46,0,3.21-1.67,3.95-2.48,.48-.54,1.13-1.03,1.63-.72,.2,.11,.87,.89,.17,2.81,.01-.32-.08-.64-.25-.91-.26,1.11-.69,2.17-1.26,3.15-.07-.22-.11-.45-.15-.68-.25,1.54-1.63,3.15-1.84,5.37-.2-.28-.3-.62-.28-.97-1.05,1.94-2.13,5.41-1.45,7.14,.13-1.81,.69-3.57,1.65-5.11-.72,2.25-1.55,5.08-.83,6.76,.17-1.68,.67-3.31,1.48-4.79-.99,3.73-1.41,5.63-.3,7.08-.05-1.82,.33-3.62,1.13-5.26-.52,2.92-1.25,5.46,.11,6.76-.08-1.83,.23-3.65,.92-5.34-.45,2.82-.83,5.53,.07,6.88,.03-.99,.15-1.97,.37-2.93,.24-1.23,.61-2.41,.61-2.41,0,0-.29,1.97-.44,4.36-.02,.4-.02,.8,0,1.21,0,.49,.06,.98,.15,1.46,.07,.42,.22,.83,.43,1.21,.12-2.42,.47-4.83,1.04-7.19,0,0-.36,2.97-.6,7.53v.48c-.3,6.53,.57,8.63,.86,9.25-.07-.31-.09-.64-.08-.96-.05-.49-.05-.98,0-1.46-.32-.99-.49-2.02-.5-3.05,.06-.97,.12-1.94,.2-2.87s.15-1.7,.25-2.5,.16-1.44,.27-2.19c.14-1.05,.35-2.1,.54-3.15,.15-.82,.07-.09,0,.1-.07,.95-.25,3-.41,5.13-.11,1.58-.47,4.71-.39,6.22,.05,.71,.2,1.41,.44,2.08-.17,1.53,.04,3.08,.62,4.51,0,0,.26-.91,.46-2.05-.06,.1-.15,.19-.26,.23-.38-1.22-.47-2.51-.27-3.77-.19-.58-.3-1.19-.33-1.8,.08-1.89,.26-3.77,.53-5.63,.08-.62,.17-1.23,.26-1.8l.17-1.13c.08-.59,.19-1.13,.32-1.77v-.27c0-.09,0,.44,0,1-.21,2.52-.78,8.95-.79,9.45,0,.64,.1,1.27,.3,1.87-.09,1-.07,2,.08,3,.09-.35,.15-.7,.19-1.06,0,0,.36-2.6,.77-6.31,.07-.57,.12-1.13,.19-1.72s.11-1.13,.17-1.64,.12-1.33,.18-1.99c0-.28,.06-.56,.08-.86,.16-1.75,.33-3.72,.48-5.45,0,0,.23-2.83,.28-3.68-.05-.03-.09-.06-.14-.1,0,0-.33,3.5-1.26,4.72-.33-.61-.51-1.28-.53-1.97-.25,.6-.61,1.15-1.06,1.62-.15-.57-.19-1.15-.12-1.74-.24,.39-.57,.72-.97,.96-.28-.6-.41-1.26-.36-1.93-.22,.27-.49,.5-.79,.68-.11-.27-.73-1.25,.39-4.9-.45,3.38-.18,3.75-.1,4.03,.19-.09,.36-.2,.52-.34,.07-.81,.19-1.61,.35-2.4-.17,2.67,0,3.52,.26,4.03,.51-.52,.9-1.15,1.13-1.85m-8.22,1.13c.17-2.47,.6-4.92,1.27-7.3-1.83,1.99-1.57,6.62-1.33,7.33m.34-7.56c.59-1.74,.1-2.61-.25-2.79,0,.8,.21,1.13,.25,2.79m1.49,1.35c.43-1.25,.67-2.55,.71-3.86-.58,1.2-.83,2.54-.71,3.86m1.58-3.38c.14-.64,.16-1.29,.07-1.94-.37,.97-.54,2-.5,3.04,.18-.36,.32-.74,.43-1.13m-4.2,13.08s0-.05,0-.08h0c.08,.02,.16,.05,.23,.1l.24,.15c-.13-.41-.19-.83-.19-1.26,0-.54-.08-1.07-.21-1.59v-.07c-.11,.27-.27,.52-.45,.74-.31,.34-.52,.75-.62,1.19v.15l-.08-.07c.14,.14-.38-.46-.38-.47-.47,1-1.08,1.92-1.81,2.75h0c-.45,.81-.7,1.71-.73,2.64-.12,.93-.12,1.88,0,2.82l.46-.51c.02,.35,.02,.7,0,1.05-.03,.27-.09,.53-.19,.78,.63,.05,1.24-.21,1.62-.71l.14,.34c.11,.33,.19,.72-.07,.94,0,0-.47,.42-.42,.8,.02,.15,.11,.29,.25,.36h0c.02,.17,.12,.32,.28,.38-.04-.12-.04-.24,0-.36,.05-.18,.22-.31,.41-.32,.07-.01,.14-.01,.2,0,0,0,.11,1.06,.21,1.49s.17,.88,.24,1.43v.36c0,.36,.25,.39,.44,.43,.15,.01,.3,.01,.45,0h0c-.27,.07-.25,.18-.25,.21,.07,.23,.07,.47,0,.7h0c.33-.19,.48-.59,.36-.95h0c.32-.18,.25-.81-.21-1.77-.2-.45-.29-1.21-.16-1.28h0c.08,0,.16,0,.37,.3s.3,.41,.48,.64c.17,.16,.27,.38,.3,.61,.02,.05,.02,.1,0,.15-.04,.01-.09,.01-.14,0-.1,.01-.2,.01-.29,0,.1,.1,.48,.54,.6,.41,.28-.34,0,.2,.53,.26,.33,0,.55-.2,.57-.6,.01-.12,.01-.23,0-.35-.08-.34-.25-.64-.5-.89l-.11-.12c-.83-.92-.77-1.13-.72-1.22s.16-.19,.38-.2c.24-.02,.47-.02,.71,0,.34,0,.9,.15,.88,.33,0,.04-.04,.08-.08,.1-.12,0-.32,.11-.34,.07,.08,.1,.18,.18,.3,.23,.15,.07,.73,.23,.91,0l.06-.11c.1,0,.38,0,.44-.25s-.18-.43-.43-.55c-.41-.18-.83-.34-1.25-.47-.19,0-.43-.09-.61-.15l-1.01-.27-.75-.26-.21-.1c-.17-.09-.31-.22-.43-.37-.16-.33-.27-.67-.35-1.03,.24,.16,.52,.28,.81,.33-.03-.3-.03-.61,0-.91,.16-1.68,.19-2.64,.19-2.64l.34,.35c.01-.57-.02-1.13-.1-1.69h0c-.07-.65-.19-1.3-.34-1.94m1.22,7.99l.78,.2,.38,.09c.13-.36,.2-.74,.19-1.13,0-.44,.98,.47,1.63,1.13,.28,.27,.33,.16,.18,0-.67-.79-1.46-1.47-2.35-2.01-.63-.39-.95-.3-.73,0,.23,.55,.2,1.18-.08,1.71m1.13,6.51c.75,.94,1.94,2.7,2.39,3.18,.98,1.01,1.4,1.13,2.14,1.13-.38-1.1-.91-2.15-1.57-3.11-.79-1.28-1.67-2.51-2.64-3.66,0,.18-.02,.36-.07,.53-.02,.04-.04,.07-.06,.11-.07,.12-.16,.22-.27,.29-.17,.12-.37,.17-.57,.15-.19,0-.37-.08-.5-.23-.13,0-.25-.02-.36-.09,.05,.29-.02,.58-.2,.81,.01,.37-.12,.73-.38,.99l.06,.08c.24,.44,.14,.65,0,.79s-1.3,1.44-1.55,1.68c-.19,.16-.47,.16-.65,0l-.19-.17-.55,.55,.07,.06c.39,.35,.84,.63,1.33,.82,.43,.18,1.69,.65,2.53,1-.2-.63-.44-1.34-.69-2.05,.23,.3,.83,1.39,1.36,2.33,0,0,.06,0,0,0,.77,.33,1.52,.71,2.25,1.13-.06-.24-.1-.39-.1-.39-.38-.4-.73-.82-1.06-1.26-.73-1.04-1.3-2.18-1.69-3.38,.98,1.49,1.23,1.89,1.61,2.42,.7,1.14,1.79,1.99,3.06,2.39-.18-.92-.51-1.13-.51-1.13-.47-.42-.89-.89-1.26-1.4,.16,.21,.29,.41,0,0s-.16-.21,0,0c-.77-1.08-1.39-2.25-1.87-3.48m-3.38,8.15c2.19,.25,4.4,.13,6.55-.34-1.75-1.21-3.64-2.2-5.63-2.95-.71-.26-1.39-.59-2.04-.98-.32-.23-.63-.48-.92-.75-1.04-.95-3.74-3.76-4.22-4.29l-1.79,1.66c1.88,1.89,3.87,3.65,5.96,5.3,1.92,.78,3.9,1.4,5.93,1.84-2.02-.17-4.02-.61-5.93-1.3-1.54-.62-6.41-5.42-6.41-5.42l-1.18,1.13c1.24,1.4,2.59,2.69,4.03,3.86,1.64,1.29,3.61,2.07,5.69,2.25m-5.16-1.13c.08,.75,.41,1.45,.94,1.98,.24-.37,.38-.8,.42-1.24-.47-.2-.93-.45-1.35-.74m-8.12-5.87c-.4,1.2-.97,2.34-1.69,3.38-.33,.44-.68,.86-1.07,1.25,0,0,0,.11-.07,.29l-.17,.07,.71-.39,.35-.17c.49-.26,.99-.5,1.51-.71,.51-.92,1.13-2.02,1.31-2.25-.17,.71-.41,1.39-.72,2.05l.38-.16c.81-.32,1.51-.56,1.85-.73,.37-.16,.72-.37,1.04-.63l.23-.2-.57-.57-.19,.16c-.19,.17-.47,.17-.65,0-.26-.25-1.44-1.55-1.55-1.68s-.25-.37,0-.8h0c-.28-.27-.43-.64-.42-1.03-.18-.23-.25-.52-.2-.81-.1,.07-.23,.1-.35,.09-.13,.14-.31,.22-.5,.23h.05c-.19,0-.38-.05-.53-.17-.13-.09-.24-.22-.29-.37h0c-.85,.96-1.6,2-2.25,3.11-.68,.98-1.23,2.05-1.64,3.17,.75,0,1.13-.16,2.15-1.18,.45-.47,1.63-2.25,2.39-3.17-.49,1.24-1.12,2.42-1.89,3.5-.39,.54-.84,1.04-1.34,1.48,0,0-.28,.18-.45,1.13,1.27-.41,2.35-1.26,3.05-2.39,.38-.52,.63-.94,1.61-2.41m-.68-4.93c-.38,.35-.62,.84-.65,1.36-.03,.3,.2,.57,.5,.6,.02,0,.05,0,.07,0,.51,0,.25-.6,.53-.26,.12,.14,.5-.3,.6-.41-.21,0-.53,.07-.47-.25,.06-.24,.19-.45,.36-.62,.14-.17,.54-.95,.81-.86s0,.83-.16,1.28c-.46,.96-.53,1.59-.21,1.77h0c-.12,.36,.03,.76,.36,.95h0c-.07-.23-.07-.47,0-.7,0,0,0-.15-.25-.21h0c.15,.01,.3,.01,.45,0,.18,0,.39-.07,.44-.43v-.36c.05-.48,.13-.96,.24-1.43,.1-.43,.21-1.49,.21-1.49,.07-.01,.14-.01,.2,0,.19,0,.35,.13,.41,.32,.03,.12,.03,.24,0,.36,.16-.07,.27-.21,.28-.38h0c.13-.08,.23-.21,.25-.36,.06-.38-.38-.78-.42-.8-.27-.21-.18-.61-.07-.94l.16-.41c.14,.18,.32,.33,.52,.44,.35,.26,.78,.38,1.22,.34-.09-.25-.15-.51-.18-.78-.02-.35-.02-.7,0-1.05l.46,.51c.19-.87,.22-1.77,.09-2.66-.07-1.06-.32-2.1-.72-3.08-.1-.31-.24-.61-.39-.9-.07,.21-.2,.39-.37,.52-.53-.62-.95-1.33-1.24-2.08-.1,.18-.23,.34-.39,.47l-.07,.07v-.09c-.1-.45-.32-.86-.63-1.19-.18-.23-.34-.48-.45-.74-.14,.53-.21,1.07-.23,1.62,0,.43-.06,.85-.19,1.26l.24-.14c.11-.08,.17-.11,.23-.11h.06s.02,.06,0,.09c-.14,.64-.25,1.29-.33,1.95-.05,.53-.03,1.07,.06,1.6l.52-.29c-.21,.88-.26,1.79-.15,2.68,.03,.3,.03,.61,0,.91,.26-.05,.51-.15,.73-.29-.07,.35-.18,.69-.34,1.01-.53,.49-1.21,.8-1.94,.88-.8,.16-1.58,.41-2.33,.74-.25,.12-.48,.38-.43,.55s.34,.25,.44,.25l.06,.11c.19,.27,.77,.11,.91,0,.12-.05,.23-.13,.32-.23,0,0-.23,0-.35-.07-.04-.02-.07-.06-.08-.1,0-.34,1.39-.38,1.59-.38s.29,0,.38,.2,.12,.29-.72,1.22m.41-4.51c.23-.35-.1-.45-.73-.06-.89,.54-1.68,1.21-2.34,2.01-.17,.21-.11,.34,.17,0,.65-.66,1.66-1.59,1.64-1.13-.01,.38,.05,.77,.18,1.13l.3-.08,.87-.23c-.29-.53-.32-1.16-.09-1.71m-1.43-13.16c.93,1.54,1.49,3.28,1.62,5.07,.68-1.74-.41-5.21-1.45-7.13,.02,.34-.08,.68-.28,.96-.2-2.25-1.59-3.83-1.83-5.37-.04,.23-.09,.45-.16,.68-.58-.98-1-2.05-1.26-3.15-.17,.27-.25,.59-.25,.91-.69-1.92,0-2.69,.17-2.81,.53-.3,1.13,.18,1.63,.72,.74,.81,1.5,2.43,3.95,2.48,.41,0,.55-.1,.35-.14h0c-2.03-.37-2.4-1.19-4.09-3.04-1.06-1.13-2.11-1.81-3.38-.34-1.82,2.05-3.08,4.55-3.63,7.24-.31,1.54-.35,3.13-.12,4.69,.29-.1,.32-.18,.32-.18,.1,1.39,.39,2.76,.87,4.07,.26-.63,.39-1.3,.39-1.97,.21,.73,.55,1.42,1.01,2.03,.21-.8,.25-1.64,.12-2.46,.22,.7,.6,1.33,1.13,1.85,.2-.52,.42-1.36,.25-4.03,.17,.79,.28,1.59,.35,2.4,.16,.13,.33,.25,.52,.34,.09-.28,.35-.66-.1-4.03,1.13,3.65,.51,4.63,.39,4.9-.3-.18-.57-.41-.79-.68,.05,.66-.08,1.32-.36,1.92-.4-.23-.72-.55-.96-.95,.03,.62-.05,1.25-.26,1.84-.44-.48-.8-1.03-1.06-1.63-.02,.69-.2,1.36-.53,1.97-.94-1.23-1.25-4.71-1.25-4.71l-.14,.1c0,.84,.16,2.16,.28,3.66h0c.15,1.74,.33,3.71,.47,5.45,.36,4.19,.83,8.37,1.39,12.53,.04,.36,.1,.71,.19,1.06,.15-.99,.18-2,.09-3,.19-.6,.29-1.24,.29-1.87,0-.51-.59-6.93-.78-9.45,0-.3-.07-.99-.07-.99v.26c.2,.96,.35,1.92,.5,2.87,.08,.57,.17,1.13,.25,1.8,.28,1.87,.46,3.75,.53,5.63-.01,.61-.12,1.22-.33,1.8,.2,1.26,.11,2.55-.27,3.77-.11-.04-.2-.12-.26-.23,.2,1.13,.47,2.05,.47,2.05,.58-1.43,.79-2.98,.62-4.51,.24-.67,.38-1.37,.43-2.08,0-.38,0-1.62-.16-3.14-.19-2.74-.43-5.48-.64-8.2v-.47s.06,.25,.08,.38c.72,3.53,1.14,7.11,1.26,10.7,0,1.04-.17,2.07-.5,3.05,.07,.49,.09,.98,.06,1.46,.02,.33-.01,.65-.09,.97,.28-.63,1.13-2.73,.86-9.26v-.48c-.25-4.51-.61-7.53-.61-7.53,.58,2.36,.92,4.76,1.04,7.19,.04-.05,.07-.1,.09-.16,.42-1.19,.58-2.46,.45-3.72-.15-2.39-.43-4.35-.43-4.35,0,0,.06,.18,.06,.2,.23,.74,.41,1.49,.54,2.25,.17,.84,.29,1.7,.35,2.56v.36c.91-1.35,.52-4.07,.07-6.88,.69,1.69,1.01,3.51,.94,5.34,1.36-1.27,.62-3.82,.1-6.76,.8,1.64,1.18,3.44,1.13,5.26,1.13-1.44,.69-3.38-.3-7.08,.81,1.48,1.31,3.11,1.49,4.79,.72-1.69-.12-4.51-.83-6.76m12.31,8.21c.51-.69,.79-1.53,.8-2.39,.17,.14,.3,.32,.38,.53,.58-1.19,.98-2.46,1.19-3.76,.24,.11,0,.06,.3,.19,.46-1.19,.73-2.44,.81-3.71,.09,0,.25,0,.32,.11,.12-.89,.26-2.32,.29-3.38,.07-1.23-.05-2.46-.36-3.65-.27-.87-.65-1.7-1.13-2.48-.12,.06-.23,.14-.32,.25-.17-.5-.62-1.68-.83-2.11-.56-1.13-.82-1.79-1.41-2.16,.23,.04,.46,.06,.7,.07-.29-.33-.61-.65-.95-.94,.14-.09,.38-.08,.79,0-.57-.53-.77-1.33-2.25-1.88,.27-.02,.55-.02,.82,0-.33-.48-.82-.83-1.37-.99-1.51-.29-3.61-.34-4.57,.81-.18,.1-.37,.17-.56,.23-.1,.03-.2,.07-.28,.14-.17,.12-.2,.29,.12,.75-.43,0-.54-.46-.61-.43-.18,.12-.34,.28-.45,.46-.16,.26-.24,.55-.24,.86,.13,.1,.31,.08,.41-.05,.04-.05,.06-.11,.06-.17,0-.15,.69-.2,.92-.2s.63,.08,1.05,0c-.15,.06-.61,.19-.78,.24s-.21,.25,0,.27,.28-.07,.46-.1,0,.25,.07,.37c1.22-.28,1.31,1.03,2.6,.77-.61-.47-1.13-1.26-1.61-1.51,1.28,.2,1.98,1.35,3.38,1.41q0-.14-.17-.37c.47,0,.8,.36,.95,.35-.32,.26-.72,.4-1.13,.42,.09,.18,.61,.21,.78,.25-.33,.29-.8,.39-1.22,.25-.4,.45-.86,.83-1.39,1.13-.01-.14-.01-.29,0-.43-.6,.35-.98,.98-1.43,1.13,.14-.23,.25-.61,.34-.8-1.36,1.1-2.57,2.37-3.61,3.79-.66,1.32-.92,2.8-.74,4.26,.06,1.04,.5,3.98,.57,4.56,.11-.05,.21-.1,.33-.14,.44,2.21,1.17,4.36,2.19,6.38,.06-.19,.19-.35,.35-.46,.1,.63,.4,1.22,.87,1.66,0-.26,.08-.52,.2-.75,.12,.42,0,1.72,.8,2.44,0-.38,.06-.76,.18-1.13,.09,.46,.21,.91,.36,1.35,.16,.44,.43,.83,.8,1.13-.02-.47,.03-.94,.16-1.4,.34,.53,.54,1.13,.6,1.76,.75-.59,1.05-2.49,1.05-2.49,.18,.2,.31,.45,.37,.71,.54-.65,.9-1.42,1.06-2.25,.05,.37,.05,.75,0,1.13m.75,10.14c.5,.02,1.01,0,1.51-.07,0-.1,0-.2-.06-.28v-.21h0c-.56,.17-1.15,.21-1.72,.11-.24-.04-.47-.1-.7-.18-.28-.08-.72,.38-1.06,.73l-.84,.94s-.03,.05-.01,.08h.01l4.29,3.94h.18l.65-.68-3.76-3.55s-.03-.11,0-.16l.23-.23s.11-.05,.16,0h0l1.21,1.14,1.61,1.43,1,.89,.16-.16c.16-.17,.11-.28-.39-.78l-2.6-2.59c-.25-.29-.07-.38,.23-.38m-5.79,.79l-3.76,3.55,.65,.68c.08,.08,.11,.07,.18,0s3.98-3.65,4.29-3.92v-.1s-.55-.62-.84-.92-.78-.81-1.06-.73c-.23,.07-.46,.13-.7,.17-.58,.09-1.17,.06-1.74-.1h-.08v.26c0,.08,0,.17,0,.25,.52,.07,1.04,.09,1.57,.07,.29,0,.47,.1,.23,.38l-2.6,2.6c-.52,.48-.55,.6-.39,.77s0,0,.16,.16l1-.89,1.61-1.42s1.13-1.13,1.21-1.13h.17l.23,.24v.16m.36-8.77c0-.18-.04-.36-.12-.52-.13-.17-.28-.33-.44-.47-.05-.06-.09-.12-.12-.19,0,.21,.02,.41,.08,.61,.05,.18,.17,.33,.33,.42,.09,.06,.18,.12,.28,.16m0,7.13c.11,.1,.22,.2,.33,.32,.11-.59,.17-1.18,.17-1.78-.25,.45-.42,.95-.5,1.46m-1.72-.11c.22-.1,.45-.19,.69-.26h.14c.12-.42,.26-.83,.42-1.24-.46,.47-.88,.98-1.24,1.53m2.78,1.28c0-.51,0-1.06-.08-1.3-.16,.27-.28,.57-.34,.88,0,0,.37,.38,.42,.42m.25-3.38c-.05-.36-.26-.67-.57-.86,.07,.35,.28,.66,.57,.86m.37-1.13h0c.08-.15,.2-.28,.34-.37,.51-.3,.99-.65,1.43-1.04,.13-.2,.23-.42,.28-.65-.16,.22-.36,.41-.6,.54-.49,.25-.94,.58-1.33,.97-.06,.1-.1,.2-.11,.32-.01-.08-.04-.16-.07-.24-.26-.53-1.03-.74-1.48-1.27-.3-.35-.32-.48-.32-.48-.03,.29,.04,.57,.2,.81,.3,.32,.64,.61,1.01,.84,.26,.13,.47,.33,.62,.57m-.48-1.9c0-.83-.91-.92-1.13-1.76-.11,1.13,.7,1.13,1.13,1.76m.42,3.38c.13-.06,.26-.14,.38-.21,.23-.12,.42-.3,.55-.52,.09-.18,.12-.38,.08-.57-.07,.2-.2,.37-.36,.5-.14,.13-.28,.28-.41,.43-.1,.11-.18,.24-.25,.38m.8,.48c.09,.51,.16,1.67,.17,2.04h0l.42-.42c-.08-.58-.29-1.13-.6-1.62m-.74,3.04s.3-.36,.45-.51h0c-.05-.6-.2-1.19-.45-1.75v2.25m0,.35v.6l.29-.3s-.23-.21-.29-.29m.19,.99c.52,.55,1.22,1.28,1.68,1.72l.48-.46-1.81-1.62-.37,.39m2.12,2.15l1.13,1.13,.51-.55-1.18-1.13s-.18,.19-.5,.48m.35-5.57c-.33-.47-.71-.9-1.13-1.3,.18,.42,.34,.86,.47,1.3h.07c.07-.02,.15-.02,.23,0,.08,0,.17,0,.25,0h.1m-.43-6.76c-.19,.32-.44,.6-.72,.84,.1-.17,.18-.36,.24-.55-.18,.34-.42,.64-.69,.91-.31,.29-.53,.65-.64,1.06,.23-.23,.5-.43,.79-.57,.57-.39,.98-.98,1.13-1.66m-8.4-7.28c.05,.78,.47,1.49,1.13,1.92-.26-.7-.64-1.35-1.13-1.92m13.52-11.96c.25,.02,.51-.05,.72-.18,.13-.06,.23-.16,.3-.28,1.55-2.25,4.44-5.86,6.59-8.72-4.42-4.35-10.73-4.65-12.39-4.51-.39,0-.83,.34-.35,.98-.78,.16-1.59,0-2.25-.44-.66,.44-1.47,.6-2.25,.44,.48-.64,0-.96-.34-.98-1.66-.12-8.3,.53-12.31,4.44l6.92,9.15c.15,.18,.37,.27,.6,.27h.11c.28-.05,.54-.21,.71-.44,.48-.52,.72-.81,1.19-1.3,.9-.92,1.76-1.63,1.9-1.77,.3-.22,.49-.56,.52-.94,0-.33-.28-.46-.45-.66-.02,.04-.05,.09-.08,.12-.14-.19-.25-.4-.32-.63l-.09,.24s-.34-.82-.88-.74c-.44,.06-.88-.02-1.27-.24,0,0-.08,.24-.07,.52h0c-.55-.58-.53-1.5,.05-2.05,.08-.08,.17-.14,.26-.2,.34-.27,.72-.48,1.13-.64,.15-.08,.29-.2,.39-.34,.36-.35,.81-.59,1.3-.69,.85-.19,1.72-.26,2.59-.21,.54,.03,1.07,.14,1.57,.34,.67,.37,1.26,.87,1.74,1.48,.49,.78,.9,1.6,1.23,2.46,.68,1.66,.6,1.46,1.06,2.57,.34,.93,.79,1.81,1.34,2.64,.15,.24,.42,.37,.7,.36m7.94-9.61l.45-.6c-2.37-2.09-5.22-3.56-8.29-4.29-1.68-.37-3.4-.54-5.11-.51-.91,0-1.5,.36-1.5,.94-.57-.1-.72-.82-.8-.96-.06,.3-.34,.89-.79,.96,0-.57-.59-.92-1.51-.94-1.72-.03-3.43,.14-5.1,.51-3.07,.66-5.91,2.1-8.26,4.18l.45,.59c1.93-1.77,4.25-3.06,6.76-3.8,1.94-.54,3.95-.81,5.97-.79,1.13,0,1.22,.64,1.13,.98,.61-.75,1.71-.86,2.46-.25,.09,.07,.17,.16,.25,.25-.12-.34,0-.94,1.13-.98,2.01-.02,4.02,.25,5.96,.79,2.54,.79,4.88,2.13,6.84,3.92m1.22-2.19c.14,.83,.53,1.6,1.13,2.2l.3,.2h0c.02-1.12,.33-2.23,.89-3.2h0c.92,.19,1.87,.19,2.79,0-1.42-.96-1.13-2.03-2.16-3.2-.12-.14-.25-.26-.39-.38-.24-.2-.54-.33-.86-.37-.19,0-.36,.07-.48,.21-.15,.16-1.62,1.74-2.59,2.83,.87,0,1.13,.79,1.36,1.7m.97-5.25c-1.32-1.22-2.85-2.2-4.51-2.9-4.92-2.15-11.18-2.16-12.97-2.16h0c-1.79,0-8.04,0-12.98,2.16-1.64,.7-3.15,1.68-4.45,2.9,0,0,2.25,2.5,2.81,3.18,.32,.31,.41,.79,.23,1.19,3.38-2.25,7.32-3.45,14.26-3.49h.32c6.76,.07,10.83,1.22,14.22,3.49-.16-.41-.07-.88,.24-1.19,.57-.68,2.81-3.18,2.81-3.18m-35.13,.73h0c-.14-.15-.48-.45-1.35,.16-1.52,1.33-1.04,2.52-2.6,3.58,.46,.09,.92,.13,1.39,.14,.22,.01,.44,.01,.66,0l.73-.11h0c.57,.97,.87,2.07,.88,3.2,1.85-.98,1.13-4.12,2.81-4.09l-2.52-2.83m1.19,6.33l2.57,3.38c.47,.64,2.08,2.58,2.07,2.32-.5-.82-1.04-1.61-1.62-2.37-.9-1.23-1.86-2.5-2.78-3.74l-.24,.35m6.67,12.19c.04,1.32,.28,2.63,.71,3.89,.12-1.34-.12-2.68-.71-3.89m-.79-1.46c-.1,.64-.07,1.3,.07,1.94,.11,.39,.25,.77,.44,1.13,.04-1.04-.14-2.07-.51-3.04m3.47,11.48c.24-.73,.51-5.35-1.33-7.36,.7,2.4,1.14,4.86,1.33,7.36m-5.04,25.79c2.15,.48,4.36,.6,6.55,.34,1.86-.18,3.63-.84,5.16-1.9-.36-.3-.8-.71-1.25-1.13-.54,.47-1.13,.88-1.77,1.21-1.91,.69-3.9,1.12-5.93,1.28,2.02-.43,4.01-1.05,5.93-1.83,.49-.31,.95-.66,1.37-1.05-.57-.54-1.13-1.13-1.54-1.51-.25,.23-.53,.45-.81,.64-.64,.4-1.33,.72-2.04,.98-1.98,.76-3.88,1.75-5.63,2.95m10.47,0c.13,.42,.3,.83,.51,1.23,.63-.59,1.03-1.39,1.13-2.25-.2,.17-.42,.33-.64,.47-.37,.23-.71,.38-.95,.51m16-44.65c.19-.27,1.13-1.51,2.39-3.19-.09-.1-.18-.21-.25-.33-.87,1.13-1.75,2.33-2.59,3.47-.59,.76-1.13,1.55-1.62,2.38,0,.25,1.6-1.69,2.07-2.33m7.26-8.31l-.45,.6c.4,.87,1.07,1.58,1.92,2.03-.44-.9-.93-1.78-1.46-2.63m-1.03-.61l.2,.36,4.9-6.51c-.8,.53-1.64,1-2.51,1.4,.06,.69-.13,1.39-.52,1.96-.08,.1-.92,1.19-2.16,2.83m-40.71-1l.38,.51c1.96-2.45,4.57-4.3,7.53-5.34-.46-.65-.33-1.54,.3-2.03h0c.83,0,1.55,.58,1.74,1.39,2.75-.69,5.56-1.07,8.39-1.13-.05-1.16,.61-2.23,1.66-2.72,.02-.23,.15-.44,.36-.54h0c.2,.11,.34,.31,.36,.54,1.05,.49,1.7,1.56,1.66,2.72,2.83,.06,5.64,.44,8.38,1.13,.19-.81,.91-1.39,1.75-1.39h0c.63,.48,.77,1.38,.32,2.03,2.98,1.07,5.61,2.94,7.59,5.41l.41-.52c-1.86-2.23-4.25-3.98-6.94-5.08,.26-.75,.06-1.58-.52-2.12,0-.31-.15-.6-.42-.77h0c-.34-.02-.67,.11-.9,.36-.83,.09-1.56,.59-1.94,1.33-2.32-.53-4.69-.85-7.06-.95-.04-1.13-.73-2.13-1.76-2.58-.17-.4-.52-.69-.94-.8-.42,.1-.76,.4-.92,.8-1.03,.45-1.72,1.45-1.77,2.58-2.38,.09-4.74,.41-7.05,.95-.38-.74-1.11-1.24-1.94-1.33-.23-.25-.56-.38-.9-.36h0c-.27,.17-.43,.46-.43,.78-.57,.54-.77,1.37-.51,2.12-2.66,1.07-5.01,2.79-6.83,5.01m-.15,1.22c.08-.14,.16-.25,.21-.33-1.13-1.52-1.94-2.55-2.02-2.64-.39-.58-.57-1.27-.52-1.96-.84-.39-1.65-.84-2.42-1.36,0,0,2.25,2.97,4.74,6.29m-2.39,3.03c.55-.31,1.02-.73,1.41-1.23,.2-.29,.39-.6,.54-.92l-.48-.62c-.53,.9-1.03,1.83-1.46,2.77m-4,18.62c1.99,1.67,4.13,3.14,6.39,4.41,.09-6.39,1.74-12.66,4.82-18.26l-1.28-1.7c-.44,.44-.99,.75-1.59,.9,.04-1.22-.23-2.44-.79-3.53-1.2,.04-2.4-.07-3.57-.34-2.35,5.04-3.55,10.86-3.98,18.58m21.29,35.43v-.07c.14-.36,.73-1.8,1.05-2.53,0-.14-.09-.26-.12-.38-.42,.07-.83,.14-1.25,.17s-4.44,.68-7.46-.74c.37-.26,1.06-.82,1.99-1.42v-.19c-.6,.33-1.28,.49-1.96,.45,0-.61,.1-1.22,.33-1.79-.37,.08-.76,.07-1.13-.02,.37-1.12,.85-2.2,1.43-3.22,.97-1.64,2.07-3.2,3.29-4.66,.1-.39,.3-.75,.59-1.05l.18-.2-.36-.29c-.08,.1-.18,.18-.29,.24-.23,.12-.48,.2-.74,.21-.27,.06-.56-.04-.74-.25h0c-.25-.05-.46-.23-.54-.47-.01-.04-.01-.09,0-.14-.18,.09-.4,.06-.55-.08-.27-.23,.1-1.4,1.37-2.6,.73-.7,1.57-1.27,2.5-1.67,.6-.27,.95,.25,.65,.6-.45,.54-.55,1.3-.26,1.94,.19-.06,.38-.12,.56-.2,.2-.05,.38-.18,.5-.35,.03-.04,.05-.08,.07-.12h-.53c.27-.66-.15-2.25,.12-3.38-.11,.08-.23,.15-.36,.21-.17-1.06-.21-2.14-.12-3.21,0-.2-.29-.53-.66-.91-.42,.98-.99,1.9-1.69,2.72-1.26,1.11-2.14,2.59-2.51,4.24h0c-.1,.42-.25,.82-.44,1.21-.23,.41-.36,.86-.38,1.33h0c.07,2.37-.08,4.75-.44,7.1-.16,.91-.49,1.78-.97,2.57l-.09-.09c-.2,.87-.58,1.69-1.13,2.4,0,0-.57-1.13-1.61-9.8-1.13-9.52-1.7-19.47-1.7-19.47h0c-.05-1.81,.22-3.61,.8-5.33,.81-2.08,2-3.99,3.52-5.63,.5-.53,1.24-.76,1.95-.61l-.38-.53c-.65-.87-1.41-1.81-2.06-2.67-4.65,8.2-4.51,18.03-4.51,18.03v1.04l-.82-.43c-2.28-1.23-4.43-2.68-6.43-4.33,0,.99-.16,4.37-.16,4.37v2.11c0,3.91,.71,13.52,3.89,20.1,.98,1.88,2.27,3.58,3.8,5.05,1.6,1.51,3.53,2.65,5.63,3.31l.48,.16c2.55,.81,5.32,.56,7.69-.69m-.18,2.72c.61-.52,1.47-.64,2.2-.3,.08-1.47,.24-2.93,.48-4.38-.21,.22-.45,.4-.72,.54-.06,0-.12-.07-.2-.16-.72,1.78-1.75,4.28-1.76,4.3m9.26,.84c-.1-2.12-.35-4.23-.73-6.32l-.1-.15-.18-.26c-.11,.38-.25,.76-.41,1.13-.14,.34-.35,.66-.61,.92-.65-.47-1.16-1.1-1.49-1.84-.31,.73-.82,1.35-1.46,1.8-.26-.26-.46-.58-.6-.92-.1-.2-.18-.41-.25-.62-.35,2.06-.58,4.13-.66,6.22-1.81-1.19-2.91,0-2.53,.83l.12,.2c.21,.29,.54,.46,.9,.46,.78,.02,1.54,.2,2.25,.52,1,.48,1.87,1.2,2.53,2.08,.66-.87,1.52-1.58,2.5-2.07,.71-.32,1.48-.5,2.25-.52,.35-.02,.68-.18,.89-.46,.05-.06,.09-.13,.12-.2,.37-.83-.72-2.03-2.53-.83m2.77-.84l-1.77-4.51c-.09,.15-.21,.29-.35,.39-.22-.11-.43-.26-.61-.43,.27,1.41,.45,2.84,.54,4.27,.73-.34,1.58-.22,2.19,.3m20.87-32.61c0-1.32-.1-3.46-.15-4.51-1.93,1.59-4,3-6.2,4.2l-1,.54v-.72c0-.08,.28-9.85-4.51-18.26-.29,.39-1.3,1.67-2.32,2.96,.66-.08,1.32,.16,1.78,.64,1.51,1.67,2.7,3.59,3.52,5.69,.58,1.71,.84,3.51,.79,5.32h0s-.57,9.95-1.71,19.47c-1.04,8.66-1.61,9.8-1.61,9.8-.54-.71-.92-1.53-1.13-2.4l-.09,.09c-.48-.79-.81-1.66-.97-2.57-.36-2.35-.51-4.72-.44-7.1h0c-.03-.47-.16-.92-.38-1.33-.19-.38-.34-.79-.44-1.21h0c-.38-1.62-1.25-3.07-2.5-4.17-.71-.88-1.31-1.86-1.76-2.9l-.06,.06c-.37,.29-.64,.68-.8,1.13,.22,1.14,.24,2.3,.07,3.45-.09-.06-.24-.2-.33-.27,.11,1.04-.38,2.25-.07,3.17l-.61-.08c.01,.05,.04,.1,.07,.15,.07,.11,.18,.2,.3,.26l.2,.1,.62,.21c.29-.64,.19-1.39-.26-1.93-.29-.36,.06-.87,.65-.61,.93,.41,1.77,.97,2.5,1.68,1.27,1.21,1.64,2.37,1.37,2.59-.18,.13-.43,.13-.62,0,.01,.04,.01,.09,0,.14-.08,.24-.29,.43-.54,.47h0c-.14,.19-.35,.26-.73,.25-.26-.02-.51-.09-.74-.21-.09-.05-.17-.11-.25-.18l-.23,.18c1.57,1.91,3.01,3.93,4.3,6.04,.56,1.03,1.02,2.1,1.39,3.21-.4,.1-.82,.1-1.22,0,.23,.57,.34,1.18,.33,1.79-.68,.03-1.36-.13-1.96-.46l.07,.35c.62,.44,1.31,.96,1.61,1.13-3.02,1.42-7.39,.78-7.47,.75l-.56-.08c0,.08-.07,.18-.11,.28,.29,.7,.98,2.33,1.13,2.65,1.98,1.04,4.25,1.39,6.44,.99,.56-.08,1.11-.23,1.63-.43,1.92-.8,3.68-1.94,5.18-3.38,1.55-1.44,2.86-3.12,3.89-4.98,3.38-6.51,3.89-16.19,3.89-20.1v-2.03"/><path class="cls-2" d="M3.44,47.33h1.76l3.54,10.85h-1.54l-.79-2.58H2.21l-.81,2.58H0l3.44-10.85Zm.84,1.27h0l-1.7,5.79h3.47l-1.77-5.79Z"/><path class="cls-2" d="M9.94,58.18v-10.85h3.54c.96-.13,1.91,.31,2.42,1.13,.27,.43,.42,.93,.43,1.44,.19,1.2-.61,2.33-1.8,2.56v.07c1.28,.03,2.3,1.09,2.27,2.37,0,.08,0,.15-.02,.23,0,2.78-2.04,3.05-3.27,3.05h-3.57Zm1.39-6.29h2.07c.93-.02,1.67-.79,1.66-1.72-.02-.93-.79-1.67-1.72-1.66h-2.01v3.38Zm0,5.09h1.95c1.02,.09,1.91-.67,2-1.68,0-.06,0-.12,0-.18,0-1.72-1.13-2.03-2.48-2.03h-1.48v3.89Z"/><path class="cls-2" d="M18.57,47.33h1.39v6.95c0,2.37,.72,2.97,2.03,2.97s2.03-.61,2.03-2.97v-6.95h1.39v6.88c0,3.01-1.13,4.19-3.38,4.19s-3.38-1.13-3.38-4.19l-.07-6.88Z"/><path class="cls-2" d="M30.42,47.33h3.38c1.23-.13,2.4,.54,2.92,1.66,.34,1.09,.5,2.24,.48,3.38,0,2.25-.21,3.65-.66,4.37-.59,.94-1.68,1.41-3.58,1.41h-2.53v-10.82Zm1.39,9.66h1.31c1.93,0,2.64-.73,2.64-3.24v-2.25c0-2.25-.69-3-2.13-3h-1.81v8.49Z"/><polygon class="cls-2" points="39.29 58.18 39.29 47.33 40.67 47.33 40.67 52.02 44.48 52.02 44.48 47.33 45.87 47.33 45.87 58.18 44.48 58.18 44.48 53.22 40.67 53.22 40.67 58.18 39.29 58.18"/><path class="cls-2" d="M50.46,47.33h1.76l3.54,10.85h-1.54l-.79-2.58h-4.19l-.81,2.58h-1.4l3.44-10.85Zm.84,1.27h0l-1.7,5.79h3.45l-1.75-5.79Z"/><path class="cls-2" d="M56.96,58.18v-10.85h3.54c.96-.13,1.91,.31,2.42,1.13,.27,.43,.42,.93,.43,1.44,.19,1.22-.64,2.37-1.86,2.57v.07c1.24-.02,2.27,.98,2.28,2.23,0,.13,0,.25-.03,.38,0,2.78-2.03,3.05-3.26,3.05h-3.53Zm1.39-6.3h2.02c.93-.02,1.67-.79,1.66-1.72-.02-.93-.79-1.67-1.72-1.66h-1.95v3.38Zm0,5.09h1.95c1.02,.09,1.91-.67,2-1.68,0-.06,0-.12,0-.18,0-1.72-1.13-2.03-2.49-2.03h-1.46v3.89Z"/><rect class="cls-2" x="65.82" y="47.33" width="1.39" height="10.86"/><path class="cls-2" d="M74.85,47.33h1.76l3.54,10.85h-1.54l-.79-2.58h-4.19l-.81,2.58h-1.4l3.44-10.85Zm.84,1.27h0l-1.69,5.79h3.47l-1.78-5.79Z"/><path class="cls-2" d="M86,50.32c.08-.55-.03-1.1-.32-1.58-.34-.29-.77-.45-1.22-.44-.66-.07-1.3,.26-1.63,.83,0,.12-.32,.39-.32,2.25v2.91c0,2.66,.87,2.97,1.94,2.97,.42,0,1.7-.16,1.71-2.25h1.43c0,3.38-2.37,3.38-3.06,3.38-1.36,0-3.38-.09-3.38-4.29v-3.06c0-3.06,1.35-3.93,3.49-3.93s2.97,1.13,2.84,3.21h-1.49Z"/><path class="cls-2" d="M93.98,50.32c.07-.55-.04-1.1-.32-1.58-.33-.3-.77-.47-1.22-.46-.66-.07-1.3,.26-1.63,.83,0,.12-.33,.39-.33,2.25v2.91c0,2.66,.88,2.97,1.95,2.97,.42,0,1.7-.16,1.71-2.25h1.49c0,3.38-2.37,3.38-3.08,3.38-1.35,0-3.38-.09-3.38-4.29v-3.04c0-3.06,1.35-3.93,3.49-3.93s2.97,1.13,2.84,3.21h-1.53Z"/><path class="cls-2" d="M97.14,54.21v-3.56c0-2.16,1.13-3.55,3.38-3.55s3.38,1.39,3.38,3.55v3.56c0,3.01-1.13,4.19-3.38,4.19s-3.38-1.13-3.38-4.19m5.42,.07v-3.67c0-2.25-1.57-2.35-1.99-2.35s-2.01,.08-2.01,2.35v3.67c0,2.37,.69,2.97,2.01,2.97s1.99-.61,1.99-2.97"/><path class="cls-2" d="M105.95,47.33h1.39v6.95c0,2.37,.72,2.97,2.04,2.97s2.03-.61,2.03-2.97v-6.95h1.39v6.88c0,3.01-1.13,4.19-3.38,4.19s-3.38-1.13-3.38-4.19l-.08-6.88Z"/><polygon class="cls-2" points="122.33 47.33 122.33 58.19 120.44 58.19 116.16 48.77 116.12 48.77 116.12 58.19 114.88 58.19 114.88 47.33 116.84 47.33 121.07 56.63 121.1 56.63 121.1 47.33 122.33 47.33"/><polygon class="cls-2" points="130.56 47.33 130.56 48.54 127.71 48.54 127.71 58.19 126.32 58.19 126.32 48.54 123.46 48.54 123.46 47.33 130.56 47.33"/><path class="cls-2" d="M132.96,47.33h1.76l3.53,10.85h-1.54l-.78-2.58h-4.22l-.81,2.58h-1.4l3.47-10.85Zm.83,1.27h0l-1.7,5.79h3.47l-1.77-5.79Z"/><path class="cls-2" d="M139.44,58.18v-10.85h3.52c.96-.13,1.91,.31,2.42,1.13,.27,.43,.42,.93,.44,1.44,.19,1.22-.65,2.37-1.87,2.57v.07c1.24-.02,2.27,.98,2.28,2.23,0,.13,0,.25-.03,.38,0,2.78-2.03,3.05-3.26,3.05h-3.5Zm1.39-6.3h2.02c.93-.02,1.68-.78,1.66-1.72-.02-.93-.78-1.68-1.72-1.66h-1.96v3.38Zm0,5.09h1.96c1.01,.09,1.9-.66,1.99-1.67,0-.06,0-.12,0-.19,0-1.72-1.13-2.03-2.48-2.03h-1.48v3.89Z"/><rect class="cls-2" x="147.73" y="47.33" width="1.39" height="10.86"/><polygon class="cls-2" points="151.06 58.18 151.06 47.33 152.45 47.33 152.45 56.99 156.43 56.99 156.43 58.18 151.06 58.18"/><rect class="cls-2" x="157.54" y="47.33" width="1.39" height="10.86"/><polygon class="cls-2" points="167.26 47.33 167.26 48.54 164.4 48.54 164.4 58.19 163.01 58.19 163.01 48.54 160.16 48.54 160.16 47.33 167.26 47.33"/><polygon class="cls-2" points="173.94 47.33 175.34 47.33 172.39 54.05 172.39 58.19 171 58.19 171 54.05 168.08 47.33 169.63 47.33 171.75 52.58 173.94 47.33"/><path class="cls-2" d="M181.74,47.33h1.78l3.53,10.85h-1.54l-.79-2.58h-4.19l-.81,2.58h-1.4l3.42-10.85Zm.83,1.27h0l-1.7,5.79h3.47l-1.77-5.79Z"/><path class="cls-2" d="M188.03,47.33h1.39v6.95c0,2.37,.72,2.97,2.03,2.97s2.04-.61,2.04-2.97v-6.95h1.37v6.88c0,3.01-1.13,4.19-3.38,4.19s-3.38-1.13-3.38-4.19l-.07-6.88Z"/><polygon class="cls-2" points="203 47.33 203 48.54 200.14 48.54 200.14 58.19 198.76 58.19 198.76 48.54 195.9 48.54 195.9 47.33 203 47.33"/><polygon class="cls-2" points="204.15 58.18 204.15 47.33 205.52 47.33 205.52 52.02 209.33 52.02 209.33 47.33 210.72 47.33 210.72 58.18 209.33 58.18 209.33 53.22 205.52 53.22 205.52 58.18 204.15 58.18"/><path class="cls-2" d="M212.43,54.21v-3.56c0-2.16,1.13-3.55,3.38-3.55s3.38,1.39,3.38,3.55v3.56c0,3.01-1.13,4.19-3.38,4.19s-3.38-1.13-3.38-4.19m5.42,.07v-3.67c0-2.25-1.57-2.35-2.01-2.35s-1.99,.08-1.99,2.35v3.67c0,2.37,.69,2.97,1.99,2.97s2.01-.61,2.01-2.97"/><path class="cls-2" d="M222.16,53.19v4.99h-1.39v-10.85h3.75c1.35-.09,2.51,.93,2.6,2.28,0,.14,0,.28,0,.43,.09,1.22-.77,2.3-1.98,2.48h0c1.25,.19,1.7,.62,1.78,2.79,.04,.96,.16,1.91,.37,2.84h-1.44c-.32-1.17-.46-2.39-.42-3.61-.02-.8-.69-1.42-1.48-1.4-.05,0-.11,0-.16,.01l-1.62,.03Zm0-1.21h2.07c.99,0,1.48-.86,1.48-1.8,.09-.81-.49-1.54-1.3-1.64-.06,0-.11,0-.17,0h-2.08v3.45Z"/><rect class="cls-2" x="228.98" y="47.33" width="1.39" height="10.86"/><polygon class="cls-2" points="238.69 47.33 238.69 48.54 235.83 48.54 235.83 58.19 234.45 58.19 234.45 48.54 231.59 48.54 231.59 47.33 238.69 47.33"/><polygon class="cls-2" points="245.37 47.33 246.77 47.33 243.82 54.05 243.82 58.19 242.43 58.19 242.43 54.05 239.51 47.33 241.06 47.33 243.19 52.58 245.37 47.33"/><path class="cls-2" d="M2.48,26.01c.23,0,.45-.09,.61-.26,.33-.34,.33-.88,0-1.22-.33-.34-.87-.35-1.21-.02l-.02,.02c-.33,.34-.33,.88,0,1.22,.16,.17,.39,.26,.62,.26"/><path class="cls-2" d="M5.35,26.01c.23,0,.45-.09,.61-.25,.33-.34,.33-.88,0-1.22-.16-.17-.38-.26-.61-.26-.23,0-.46,.09-.62,.26-.33,.34-.33,.88,0,1.22,.16,.17,.39,.26,.62,.26"/><path class="cls-2" d="M23.96,38.38c-.23,0-.45,.08-.61,.25-.17,.16-.26,.39-.26,.62,0,.23,.09,.45,.26,.61,.34,.33,.88,.33,1.22,0,.17-.16,.27-.38,.26-.61,0-.48-.39-.87-.87-.87h0"/><path class="cls-2" d="M47.86,34.39c.01,.12,.01,.25,0,.37-.02,.09-.06,.17-.12,.23-.09,.07-.21,.12-.33,.14-.2,.01-.41,.01-.61,0h-.95c.07-.25,.1-.51,.09-.77v-5.75h-1.34v5.75c0,.12,0,.24,0,.36-.02,.09-.06,.17-.12,.24-.1,.07-.22,.12-.35,.14-.22,.01-.44,.01-.65,0h-1.13c.06-.25,.09-.51,.08-.77v-5.75h-1.34v5.75c.02,.24-.09,.47-.3,.6-.39,.14-.8,.2-1.22,.17h-14.91v-6.42h-1.33v6.49H6.57c-.2,0-.3-.11-.3-.36v-7.5c-.42,.12-.98,.32-1.68,.6-.73,.29-1.41,.67-2.05,1.13-.67,.48-1.26,1.06-1.75,1.74-.49,.71-.75,1.57-.73,2.43,0,.38,.05,.76,.15,1.13,.1,.42,.3,.8,.59,1.13,.35,.37,.77,.66,1.24,.86,.67,.27,1.38,.41,2.1,.43l.1-1.32c-.76-.04-1.5-.25-2.16-.62-.49-.37-.75-.96-.69-1.57,0-.51,.13-1.01,.39-1.45,.25-.42,.56-.8,.92-1.13,.34-.32,.72-.6,1.13-.83,.41-.23,.77-.42,1.07-.56v5.57c-.03,.45,.11,.9,.39,1.25,.27,.29,.65,.45,1.05,.44H47.48c.27-.02,.54-.1,.79-.23,.27-.14,.5-.36,.65-.63,.2-.37,.29-.78,.27-1.19v-5.75h-1.33v5.69Z"/><path class="cls-2" d="M103.59,35.15h-2.25v-12.11h-1.33v12.11h-16.09v-7.3c-.54,.06-1.08,.16-1.61,.29-.71,.17-1.4,.44-2.04,.8-.68,.37-1.27,.87-1.76,1.46-.52,.63-.78,1.44-.75,2.25-.02,.51,.07,1.01,.25,1.49,.14,.38,.35,.73,.61,1.04h-11.39c-.16,0-.32-.02-.47-.07-.12-.04-.24-.11-.34-.19-.1-.06-.17-.14-.23-.24-.1-.17-.16-.35-.2-.54-.09-.31-.15-.63-.18-.96,0-.41-.11-.92-.16-1.57-.18-2.61-1.39-3.92-3.64-3.92-.51,0-1.02,.09-1.5,.27-.4,.15-.78,.36-1.13,.62l.81,1.05c.54-.38,1.18-.6,1.84-.62,.26,0,.51,.03,.77,.08,.26,.06,.5,.18,.71,.35,.25,.22,.44,.49,.56,.8,.17,.47,.28,.97,.3,1.48,.03,.71,.1,1.42,.21,2.12,.06,.46,.2,.92,.39,1.34h-12.39v-12.08h-1.36v13.36h53.7v-13.43h-1.33v12.11Zm-20.99,0c-.89,.02-1.78-.16-2.59-.54-.66-.41-1.02-1.16-.92-1.93,0-.44,.12-.88,.37-1.24,.25-.36,.56-.67,.92-.92,.35-.25,.73-.46,1.13-.63,.37-.15,.74-.28,1.13-.38l-.03,5.64Z"/><path class="cls-2" d="M116.6,41.76c-.23,0-.45,.09-.61,.26-.33,.34-.33,.88,0,1.22,.16,.17,.38,.26,.61,.26,.23,0,.46-.09,.62-.26,.33-.34,.33-.88,0-1.22-.16-.17-.39-.26-.62-.26"/><path class="cls-2" d="M113.72,41.76c-.49-.01-.9,.38-.91,.87-.01,.49,.38,.9,.87,.91,.49,.01,.9-.38,.91-.87,0-.24-.09-.48-.26-.65-.16-.17-.38-.26-.61-.26"/><path class="cls-2" d="M133.76,38.38c-.23,0-.45,.08-.61,.25-.17,.16-.26,.39-.26,.62,0,.23,.09,.45,.26,.61,.34,.33,.88,.33,1.22,0,.17-.16,.26-.38,.26-.61,0-.23-.09-.46-.26-.62-.16-.16-.38-.25-.61-.25"/><path class="cls-2" d="M152.92,28.26c-.87,.24-1.71,.58-2.5,1.03-.67,.38-1.28,.86-1.83,1.41-.47,.47-.88,.98-1.24,1.53v-9.18h-1.32v12.11h-11.6v-6.49h-1.33v6.49h-10.94l-2.47-7.89c-.65,.08-1.28,.28-1.87,.57-.51,.26-.97,.61-1.34,1.05-.34,.41-.61,.88-.79,1.39-.18,.53-.27,1.09-.27,1.66,0,.57,.11,1.13,.35,1.64,.21,.47,.49,.91,.82,1.31,.3,.35,.64,.67,1.01,.95,.34,.27,.63,.48,.88,.65l.07,.1c-.05,.23-.11,.46-.19,.68-.11,.31-.28,.6-.51,.84-.28,.3-.62,.53-.99,.7-.51,.22-1.06,.32-1.61,.3-.28,0-.56-.05-.83-.14-.3-.08-.58-.22-.82-.41-.26-.19-.47-.43-.62-.71-.17-.31-.26-.66-.25-1.01v-1.67h-1.32v1.71c-.01,.56,.11,1.11,.36,1.61,.23,.44,.55,.82,.95,1.13,.74,.54,1.62,.84,2.53,.86,.75,.02,1.5-.13,2.19-.43,.55-.28,1.04-.66,1.44-1.13,.35-.4,.62-.86,.8-1.35,.16-.41,.24-.85,.25-1.3l-.33-.54c-.06-.09-.13-.17-.21-.24-.1-.08-.21-.17-.37-.27-.59-.41-1.12-.9-1.58-1.45-.45-.52-.7-1.19-.69-1.88,0-.31,.04-.62,.12-.92,.09-.31,.22-.61,.39-.89,.18-.28,.4-.54,.65-.75,.26-.22,.57-.39,.89-.51l2.39,7.6h35.66v-8.57h-.69c-1.1-.02-2.19,.12-3.26,.41m2.61,6.9h-8.07c.16-.5,.35-.99,.59-1.46,.34-.69,.79-1.31,1.34-1.85,.7-.68,1.51-1.24,2.39-1.64,1.19-.55,2.47-.87,3.77-.95l-.02,5.9Z"/><path class="cls-2" d="M150.17,26.83c.23,0,.45-.09,.61-.26,.17-.16,.26-.38,.26-.61,0-.23-.09-.45-.26-.61-.16-.16-.38-.25-.61-.25-.23,0-.45,.08-.61,.25-.17,.16-.26,.38-.26,.61,0,.23,.09,.45,.26,.61,.15,.17,.38,.27,.61,.26"/><path class="cls-2" d="M191.19,38.38c-.23,0-.45,.08-.61,.25-.19,.16-.3,.4-.3,.65,0,.23,.09,.45,.26,.61,.34,.33,.88,.33,1.22,0,.17-.16,.26-.38,.26-.61,0-.23-.09-.46-.26-.62-.16-.16-.38-.25-.61-.25"/><path class="cls-2" d="M191.88,28.66h-1.33v6.49h-25.6v-7.48c-.88,.07-1.74,.27-2.56,.59-.73,.26-1.41,.64-2.02,1.13-.55,.46-1,1.03-1.32,1.67-.31,.62-.48,1.31-.47,2.01-.04,.95,.38,1.86,1.13,2.44,1.01,.68,2.22,1,3.44,.92h.46v1.75c-.01,.42-.09,.84-.24,1.24-.13,.34-.34,.64-.63,.87-.37,.23-.8,.34-1.23,.32v1.32c.62,.03,1.24-.11,1.79-.42,.44-.28,.8-.67,1.04-1.13,.25-.48,.41-1,.48-1.54,.08-.59,.12-1.18,.12-1.78v-.65h26.93v-7.73Zm-28.24,6.49h-.52c-.85,.07-1.7-.13-2.43-.56-.5-.35-.78-.92-.77-1.52,0-.89,.36-1.75,1.01-2.35,.76-.72,1.69-1.22,2.7-1.46v5.9Z"/><path class="cls-2" d="M195.24,20.83c.39,0,.78,.09,1.13,.26l.26-.64c-.44-.18-.9-.28-1.37-.28-.34,0-.67,.1-.95,.28-.3,.23-.46,.6-.43,.98,0,.2,.03,.4,.1,.59,.07,.2,.14,.31,.2,.34h-1.13v.66h3.38v-.63h-.63c-.33,0-.65-.07-.95-.21-.24-.15-.39-.42-.37-.71-.02-.18,.05-.36,.2-.47,.16-.09,.34-.14,.53-.12"/><rect class="cls-2" x="194.06" y="24.11" width="1.32" height="12.37"/><path class="cls-2" d="M203.04,37.03v1.33c-.02,.39-.12,.77-.27,1.13-.13,.32-.36,.6-.64,.8-.33,.22-.73,.33-1.13,.32v1.32c.65,.03,1.29-.12,1.86-.44,.44-.28,.79-.67,1.04-1.13,.24-.49,.4-1.03,.46-1.58,.07-.57,.1-1.14,.1-1.71v-8.43h-1.33l-.09,8.39Z"/><path class="cls-2" d="M203.71,24.8c-.23,0-.45,.08-.61,.25-.17,.16-.26,.39-.26,.62,0,.23,.09,.45,.26,.61,.16,.16,.38,.25,.61,.25,.23,0,.44-.08,.6-.25,.16-.16,.25-.38,.25-.61,0-.23-.08-.46-.25-.62-.15-.17-.37-.26-.6-.25"/><path class="cls-2" d="M246.1,34.99c-.34-.1-.55-.41-.65-.91s-.2-1.34-.32-2.49c-.02-1.07-.39-2.1-1.06-2.94-.67-.68-1.61-1.04-2.57-.98-.52,0-1.03,.09-1.51,.27-.4,.16-.78,.37-1.13,.62l.82,1.05c.53-.38,1.17-.6,1.83-.62,.26,0,.51,.03,.77,.08,.26,.06,.51,.18,.71,.35,.26,.21,.45,.49,.56,.8,.18,.47,.29,.97,.3,1.48,0,.87,.12,1.57,.21,2.12,.06,.46,.2,.92,.39,1.34h-17.01v-7.48c-.24-.08-.48-.14-.73-.19l-.84-.17c-.28,0-.57-.09-.87-.11h-.79c-.42,0-.84,.03-1.26,.09-.44,.07-.86,.19-1.27,.35-.41,.17-.79,.41-1.13,.7-.38,.31-.69,.7-.92,1.13l1.13,.65c.32-.61,.85-1.07,1.5-1.28,.62-.21,1.28-.32,1.94-.32,.38,0,.75,.02,1.13,.07,.33,0,.61,.09,.86,.14v6.47h-1.13v-4.36c-.01-.17-.12-.32-.27-.38-.22-.1-.46-.16-.71-.17-.26-.06-.52-.09-.79-.11-.24-.01-.49-.01-.73,0-.52-.01-1.04,.08-1.52,.26-.4,.15-.76,.39-1.06,.7-.27,.29-.49,.63-.62,1-.14,.36-.21,.74-.21,1.13-.04,.72,.21,1.43,.7,1.96h-12.11v-12.09h-1.32v13.35h40.36l.06-1.26-.72-.21Zm-22.42,.14c-.83,0-1.66-.17-2.43-.48-.51-.27-.8-.82-.74-1.4-.02-.5,.17-.99,.52-1.35,.44-.37,1-.55,1.57-.51,.2-.01,.4-.01,.6,0,.17,.02,.33,.05,.5,.09v3.65Z"/><path class="cls-2" d="M242.1,38.16c-.49-.01-.9,.38-.91,.87-.01,.49,.38,.9,.87,.91,.49,.01,.9-.38,.91-.87,0-.24-.09-.48-.26-.65-.16-.17-.38-.26-.61-.26"/></g></g></svg>