<?xml version="1.0" encoding="UTF-8"?>
<svg id="Layer_2" data-name="Layer 2" xmlns="http://www.w3.org/2000/svg" viewBox="0 0 192.7 181.8">
  <g id="Layer_1-2" data-name="Layer 1">
    <g id="Artwork">
      <g>
        <path d="m163.8,96.6c6.8-11.8,10.7-25.1,12.1-38.1h-20.8c-.5,8-2.1,16.1-4.9,23.4-2.7,7.1-6.2,13.5-10.7,18.7h0c-6.8,7.8-15.4,12.8-25.3,12.8-11.7,0-19.7-5-22.7-13.4h-22.2c-3.6,8.7-12.1,13-22.9,13-11.8,0-23.9-8.5-25.3-25.8h69.5c1.8-8.5,8.5-14.9,19.4-19.1,0,0,10.1-3.7,20.1-8h0c13.9-6.4,24.3-17.9,24.3-32.4,0-20.6-17.7-27.7-33.6-27.7-20.1,0-35,10.6-35,27.4,0,9.9,5.4,19.2,13.3,28.6-4.2,1.5-8.3,3.4-12,5.8-6.4-17.7-21.2-29.2-41.3-29.2C19.3,32.6,0,52.5,0,80.6s17.2,49.6,47.2,49.6c13.8,0,24.2-5,31.4-12.1,7.4,7.5,18.4,12.1,31.9,12.1,16.6,0,30.2-6.6,40.6-16.8l13.3,14.6h28.3l-28.9-31.4ZM120.9,15.7c7.6,0,13.9,4.3,13.9,12.8,0,7.8-4.7,15.4-15.3,20.1l-.2-.2c-6.2-6.6-12.1-14.2-12.1-21.5,0-7.1,6.5-11.2,13.7-11.2ZM45.8,48.7c12.1,0,23.2,8.8,23.8,23.4H21.1c1.7-17.6,15-23.4,24.7-23.4Z" style="fill: #e00b14;"/>
        <g>
          <path d="m14.3,178.1c2.3,0,4.1-.9,4.8-2.8h4.3c-.9,3.2-3.9,6.4-9,6.4-6.3,0-10-4.9-10-10.5,0-6,4.1-10.2,9.7-10.2,6.1,0,9.8,4.9,9.5,11.6h-14.7c.4,3.7,2.9,5.5,5.4,5.5Zm4.9-8.7c-.1-3.1-2.5-5-5-5-2.1,0-4.9,1.2-5.2,5h10.2Z" style="fill: #e00b14;"/>
          <path d="m31.3,156.2v5.2h4v3.2h-4v10.8c0,2,.5,2.5,2.3,2.5h1.6v3.3h-3.2c-4.2,0-5.1-1.1-5.1-5.2v-11.4h-2.9v-3.2h2.9v-5.2h4.4Z" style="fill: #e00b14;"/>
          <path d="m42.3,159h-4.4v-4.4h4.4v4.4Zm0,22.2h-4.4v-19.8h4.4v19.8Z" style="fill: #e00b14;"/>
          <path d="m53.3,164.3c-1.9,0-3.7.8-3.7,2.2s1,2,2.6,2.4l2.8.6c4,.8,7,2,7,5.9,0,4.1-3.9,6.4-8.4,6.4-4.8,0-8.1-2.8-8.5-6.5h4.3c.4,2,1.9,3.2,4.4,3.2,2.3,0,4-1,4-2.6s-1.5-2.4-3.4-2.7l-3-.6c-3.3-.7-5.9-2.2-5.9-5.8s3.7-5.7,8-5.7c3.9,0,7.4,1.9,8.2,5.8h-4.1c-.5-1.9-2.1-2.6-4.3-2.6Z" style="fill: #e00b14;"/>
          <path d="m77.1,168.9v-.4c0-3.4-1.9-4.4-4.1-4.4s-3.9,1.2-4,3.6h-4.3c.3-4,3.6-6.8,8.4-6.8s8.4,2.2,8.3,8.5c0,1-.1,3.3-.1,5.1,0,2.5.2,5.1.6,6.8h-4c-.1-.8-.3-1.3-.4-2.7-1.2,2.1-3.6,3.2-6.5,3.2-4.3,0-7.3-2.3-7.3-5.9.2-5.1,6.2-6.3,13.4-7Zm-8.6,6.8c0,1.7,1.4,2.8,3.6,2.8,3.2,0,5.1-1.7,5.1-5v-1.6c-6.2.6-8.7,1.5-8.7,3.8Z" style="fill: #e00b14;"/>
          <path d="m85.2,181.2v-26.6h4.4v26.6h-4.4Z" style="fill: #e00b14;"/>
          <path d="m105.7,168.9v-.4c0-3.4-1.9-4.4-4.1-4.4s-3.9,1.2-4,3.6h-4.3c.3-4,3.6-6.8,8.4-6.8s8.4,2.2,8.3,8.5c0,1-.1,3.3-.1,5.1,0,2.5.2,5.1.6,6.8h-4c-.1-.8-.3-1.3-.4-2.7-1.2,2.1-3.6,3.2-6.5,3.2-4.3,0-7.3-2.3-7.3-5.9.1-5.1,6.1-6.3,13.4-7Zm-8.7,6.8c0,1.7,1.4,2.8,3.6,2.8,3.2,0,5.1-1.7,5.1-5v-1.6c-6.2.6-8.7,1.5-8.7,3.8Z" style="fill: #e00b14;"/>
          <path d="m118.6,156.2v5.2h4v3.2h-4v10.8c0,2,.5,2.5,2.3,2.5h1.6v3.3h-3.2c-4.2,0-5.1-1.1-5.1-5.2v-11.4h-2.9v-3.2h2.9v-5.2h4.4Z" style="fill: #e00b14;"/>
          <path d="m145.8,168.9v-.4c0-3.4-1.9-4.4-4.1-4.4s-3.9,1.2-4,3.6h-4.3c.3-4,3.6-6.8,8.4-6.8s8.4,2.2,8.3,8.5c0,1-.1,3.3-.1,5.1,0,2.5.2,5.1.6,6.8h-4c-.1-.8-.3-1.3-.4-2.7-1.2,2.1-3.6,3.2-6.5,3.2-4.3,0-7.3-2.3-7.3-5.9.1-5.1,6.2-6.3,13.4-7Zm-8.6,6.8c0,1.7,1.4,2.8,3.6,2.8,3.2,0,5.1-1.7,5.1-5v-1.6c-6.2.6-8.7,1.5-8.7,3.8Z" style="fill: #e00b14;"/>
          <path d="m164.2,161c4.8,0,6.7,3.1,6.7,7.8v12.4h-4.3v-11.3c0-2.7-.4-5.3-3.7-5.3s-4.6,2.6-4.6,6.1v10.5h-4.4v-19.8h4.4v2.8c1.1-2.1,3.2-3.2,5.9-3.2Z" style="fill: #e00b14;"/>
          <path d="m192.4,154.6v26.6h-4.4v-2.6c-1.2,1.9-3.2,3.1-5.9,3.1-4.7,0-8.6-4-8.6-10.4s3.9-10.3,8.6-10.3c2.6,0,4.7,1.1,5.9,3.1v-9.5h4.4Zm-14.3,16.7c0,4.2,2.1,6.8,5,6.8s5.1-2.2,5.1-6.8-2.2-6.8-5.1-6.8c-2.9.1-5,2.7-5,6.8Z" style="fill: #e00b14;"/>
        </g>
      </g>
    </g>
  </g>
</svg>