<svg width="70" height="38" viewBox="0 0 70 38" fill="none" xmlns="http://www.w3.org/2000/svg">
<path d="M50.6228 0C41.4129 0 33.6974 6.33786 31.7386 14.795C32.0173 12.6205 31.6939 10.3952 30.882 8.21548C29.1215 3.48902 24.2803 0.375698 19.1095 0.375698L1.943 0.378325L1.94568 8.58593L18.2396 8.5833C23.5559 8.5833 24.8511 14.3563 20.9076 16.9153C14.4122 21.5778 1.96533 30.2583 1.83314 30.3468C0.315581 31.3565 -0.353431 33.2184 0.183387 34.9392C0.720204 36.6601 2.3378 37.838 4.17245 37.8432L18.9836 37.8897C21.0344 34.5145 23.7774 31.7199 26.9305 29.8073V37.8599H34.7308V29.8406C38.2358 34.7649 44.0479 38 50.6228 38C61.3073 38 70 29.4745 70 18.9987C70 8.52287 61.3073 0 50.6228 0ZM27.0957 29.6934L17.4777 29.6785C20.7459 27.4025 24.107 25.0055 26.5625 23.1226C29.2912 21.0322 30.8168 18.6843 31.4724 16.2383C31.3375 17.1421 31.2447 18.0581 31.2447 18.9978C31.2447 22.9624 32.4934 26.644 34.6201 29.6934H27.0966H27.0957ZM50.6228 29.7556C44.5731 29.7556 39.6524 24.9311 39.6524 18.9978C39.6524 13.0645 44.5731 8.24263 50.6228 8.24263C56.6725 8.24263 61.5922 13.0672 61.5922 18.9978C61.5922 24.9284 56.6716 29.7556 50.6228 29.7556Z" fill="white"/>
</svg>
