<?xml version="1.0" encoding="UTF-8"?>
<svg id="Calque_2" data-name="Calque 2" xmlns="http://www.w3.org/2000/svg" viewBox="0 0 261.53 61.67">
  <g id="Calque_1-2" data-name="Calque 1">
    <g>
      <g>
        <path d="M3.09,42.32l16.5-20.11c.13-.15.23-.33.29-.52L26.83,2.34c.55-1.53-1.1-2.91-2.51-2.1L.87,13.75c-.54.31-.87.89-.87,1.51v25.95c0,1.64,2.05,2.37,3.09,1.11Z"/>
        <path d="M53.34,44.78l-24.3-8.98c-.39-.14-.82-.14-1.21,0L3.53,44.78c-1.39.51-1.55,2.42-.25,3.15l24.3,13.74h1.72l24.3-13.74c1.29-.73,1.14-2.64-.25-3.15Z"/>
        <path d="M55.99,13.75L32.55.24c-1.41-.81-3.06.57-2.51,2.1l6.95,19.35c.07.19.17.36.29.52l16.5,20.11c1.04,1.27,3.09.53,3.09-1.11V15.26c0-.62-.33-1.2-.87-1.51Z"/>
      </g>
      <g>
        <path d="M116.6,44.38c-2.19.55-3.72.82-5.2.82-5.47,0-6.02-2.85-6.07-5.91-2.79,3.45-9.41,5.91-15.59,5.91-8.43,0-14.28-3.56-14.28-10.18,0-7.17,7.5-9.03,14.55-9.03,4.87,0,11.43,1.04,14.99,2.13-.11-4.6-3.39-7.82-12.75-7.82-6.29,0-11.44,1.48-12.8,2.24-.49-1.92-1.09-3.78-1.92-5.64,1.64-.6,7.71-2.08,14.72-2.08,13.79,0,18.71,5.8,18.71,13.51v8.1c0,2.13.49,3.28,2.9,3.28.77,0,1.86-.16,3.06-.49-.16,1.2-.38,3.94-.33,5.14ZM81.53,34.64c0,3.78,4.05,5.53,9.25,5.53,6.29,0,13.19-2.9,14.33-6.57v-2.79c-1.7-.49-13.9-.82-15.37-.82-3.88,0-8.21.99-8.21,4.65Z"/>
        <path d="M121.74,15.21c0-2.68,0-6.24-.33-9.3,1.92,0,4.71-.22,6.62-.66-.27,3.17-.38,7.11-.38,9.96v19.81c0,2.74.05,6.46.38,9.52-1.15-.11-2.3-.16-3.34-.16-1.09,0-2.19.05-3.28.16.33-3.06.33-6.78.33-9.52V15.21Z"/>
        <path d="M139.42,32.45c1.04,4.76,5.74,7.28,15.1,7.28,7.33,0,14.01-1.64,15.65-2.46.16,1.81.55,3.72,1.09,5.64-1.92.71-8.64,2.3-16.58,2.3-14.5,0-21.67-5.31-21.67-14.99,0-8.43,6.24-15.37,19.2-15.37s22.32,5.85,18.6,17.62h-31.4ZM139.31,28.45h25.66c1.48-5.53-4.38-8.26-12.42-8.26-8.48,0-12.42,3.34-13.13,7.66l-.11.6Z"/>
        <path d="M177.61,44.54c.33-3.06.38-6.78.38-9.52v-9.79c0-2.74-.05-6.29-.38-9.36,1.91,0,4.16-.22,6.07-.66l.16,5.14.05.05c4.49-4.05,10.07-5.96,16.47-5.36-.33,1.97-.55,3.94-.55,5.91-5.25-1.04-11.93.16-15.92,4.27v9.79c0,2.74,0,6.46.33,9.52-1.15-.11-2.24-.16-3.34-.16s-2.19.05-3.28.16Z"/>
        <path d="M213.66,8.27c0,1.7-1.04,3.12-3.94,3.12s-3.94-1.42-3.94-3.12,1.09-3.17,3.94-3.17,3.94,1.42,3.94,3.17ZM206.77,35.02c0,2.74,0,6.46-.33,9.52,1.09-.11,2.19-.16,3.28-.16s2.19.05,3.34.16c-.33-3.06-.38-6.78-.38-9.52v-9.79c0-2.9.11-6.78.38-10.01-1.92.44-4.71.66-6.62.66.33,3.06.33,6.62.33,9.36v9.79Z"/>
        <path d="M261.21,44.38c-2.19.55-3.72.82-5.2.82-5.47,0-6.02-2.85-6.07-5.91-2.79,3.45-9.41,5.91-15.59,5.91-8.43,0-14.28-3.56-14.28-10.18,0-7.17,7.5-9.03,14.55-9.03,4.87,0,11.43,1.04,14.99,2.13-.11-4.6-3.39-7.82-12.75-7.82-6.29,0-11.44,1.48-12.8,2.24-.49-1.92-1.09-3.78-1.92-5.64,1.64-.6,7.71-2.08,14.72-2.08,13.79,0,18.71,5.8,18.71,13.51v8.1c0,2.13.49,3.28,2.9,3.28.77,0,1.86-.16,3.06-.49-.16,1.2-.38,3.94-.33,5.14ZM226.14,34.64c0,3.78,4.05,5.53,9.25,5.53,6.29,0,13.19-2.9,14.33-6.57v-2.79c-1.7-.49-13.9-.82-15.37-.82-3.88,0-8.21.99-8.21,4.65Z"/>
      </g>
    </g>
  </g>
</svg>