<?xml version="1.0" encoding="UTF-8"?>
<svg id="Calque_2" data-name="Calque 2" xmlns="http://www.w3.org/2000/svg" xmlns:xlink="http://www.w3.org/1999/xlink" viewBox="0 0 2895.63 682.77">
  <defs>
    <style>
      .cls-1 {
        fill: url(#Dégradé_sans_nom_8);
      }

      .cls-2 {
        fill: url(#Dégradé_sans_nom_8-9);
      }

      .cls-3 {
        fill: url(#Dégradé_sans_nom_8-7);
      }

      .cls-4 {
        fill: url(#Dégradé_sans_nom_8-8);
      }

      .cls-5 {
        fill: url(#Dégradé_sans_nom_8-2);
      }

      .cls-6 {
        fill: url(#Dégradé_sans_nom_8-5);
      }

      .cls-7 {
        fill: url(#Dégradé_sans_nom_8-6);
      }

      .cls-8 {
        fill: url(#Dégradé_sans_nom_8-3);
      }

      .cls-9 {
        fill: url(#Dégradé_sans_nom_8-4);
      }
    </style>
    <linearGradient id="Dégradé_sans_nom_8" data-name="Dégradé sans nom 8" x1="-236.94" y1="166.03" x2="3080.54" y2="782.74" gradientUnits="userSpaceOnUse">
      <stop offset=".01" stop-color="#00ef86"/>
      <stop offset=".96" stop-color="#ffe5bb"/>
    </linearGradient>
    <linearGradient id="Dégradé_sans_nom_8-2" data-name="Dégradé sans nom 8" x1="-285.64" y1="428.05" x2="3031.84" y2="1044.76" xlink:href="#Dégradé_sans_nom_8"/>
    <linearGradient id="Dégradé_sans_nom_8-3" data-name="Dégradé sans nom 8" x1="-225.87" y1="106.51" x2="3091.61" y2="723.22" xlink:href="#Dégradé_sans_nom_8"/>
    <linearGradient id="Dégradé_sans_nom_8-4" data-name="Dégradé sans nom 8" x1="-225.01" y1="101.9" x2="3092.47" y2="718.61" xlink:href="#Dégradé_sans_nom_8"/>
    <linearGradient id="Dégradé_sans_nom_8-5" data-name="Dégradé sans nom 8" x1="-202.59" y1="-18.71" x2="3114.89" y2="598" xlink:href="#Dégradé_sans_nom_8"/>
    <linearGradient id="Dégradé_sans_nom_8-6" data-name="Dégradé sans nom 8" x1="-202.35" y1="-20.03" x2="3115.13" y2="596.68" xlink:href="#Dégradé_sans_nom_8"/>
    <linearGradient id="Dégradé_sans_nom_8-7" data-name="Dégradé sans nom 8" x1="-188.57" y1="-94.15" x2="3128.91" y2="522.56" xlink:href="#Dégradé_sans_nom_8"/>
    <linearGradient id="Dégradé_sans_nom_8-8" data-name="Dégradé sans nom 8" x1="-171.47" y1="-186.1" x2="3146.01" y2="430.61" xlink:href="#Dégradé_sans_nom_8"/>
    <linearGradient id="Dégradé_sans_nom_8-9" data-name="Dégradé sans nom 8" x1="-171.53" y1="-185.79" x2="3145.95" y2="430.93" xlink:href="#Dégradé_sans_nom_8"/>
  </defs>
  <g id="Calque_1-2" data-name="Calque 1">
    <g>
      <g>
        <path class="cls-1" d="M34.21,468.5l182.66-222.62c1.4-1.71,2.5-3.64,3.25-5.72L297.04,25.89c6.07-16.91-12.23-32.21-27.79-23.24L9.66,152.19c-5.98,3.44-9.66,9.82-9.66,16.72v287.35c0,18.12,22.72,26.25,34.21,12.24Z"/>
        <path class="cls-5" d="M590.58,495.78l-269.08-99.44c-4.32-1.6-9.06-1.6-13.38,0L39.03,495.78c-15.41,5.7-17.11,26.81-2.81,34.9l269.08,152.09h18.99l269.08-152.09c14.3-8.08,12.6-29.2-2.81-34.9Z"/>
        <path class="cls-8" d="M619.94,152.19L360.36,2.65c-15.57-8.97-33.86,6.33-27.79,23.24l76.92,214.27c.75,2.08,1.84,4.01,3.24,5.72l182.66,222.62c11.49,14.01,34.21,5.88,34.21-12.24V168.91c0-6.9-3.68-13.28-9.66-16.72Z"/>
      </g>
      <g>
        <path class="cls-9" d="M1290.95,491.31c-24.23,6.06-41.19,9.08-57.55,9.08-60.57,0-66.63-31.5-67.24-65.42-30.89,38.16-104.19,65.42-172.64,65.42-93.29,0-158.1-39.37-158.1-112.67,0-79.35,82.99-99.95,161.13-99.95,53.91,0,126.6,11.51,165.98,23.63-1.21-50.89-37.56-86.63-141.14-86.63-69.66,0-126.61,16.36-141.75,24.84-5.45-21.2-12.12-41.8-21.2-62.4,18.17-6.66,85.41-23.02,162.95-23.02,152.65,0,207.17,64.21,207.17,149.62v89.65c0,23.62,5.45,36.34,32.1,36.34,8.48,0,20.6-1.82,33.92-5.45-1.82,13.33-4.24,43.62-3.64,56.94ZM902.67,383.49c0,41.8,44.82,61.18,102.37,61.18,69.66,0,145.99-32.11,158.71-72.69v-30.9c-18.78-5.45-153.86-9.08-170.22-9.08-43.01,0-90.86,10.91-90.86,51.49Z"/>
        <path class="cls-6" d="M1347.91,168.44c0-29.68,0-69.06-3.63-102.98,21.2,0,52.09-2.42,73.3-7.27-3.03,35.14-4.24,78.75-4.24,110.25v219.28c0,30.29.6,71.48,4.24,105.4-12.72-1.21-25.44-1.82-36.95-1.82-12.11,0-24.23.6-36.34,1.82,3.63-33.92,3.63-75.11,3.63-105.4v-219.28Z"/>
        <path class="cls-7" d="M1543.56,359.26c11.51,52.7,63.6,80.56,167.19,80.56,81.17,0,155.07-18.17,173.25-27.26,1.82,19.99,6.06,41.19,12.12,62.4-21.2,7.87-95.71,25.44-183.54,25.44-160.53,0-239.88-58.76-239.88-165.97,0-93.29,69.06-170.22,212.62-170.22s247.15,64.82,205.95,195.05h-347.7ZM1542.35,315.04h284.1c16.35-61.18-48.46-91.47-137.51-91.47-93.89,0-137.51,36.95-145.38,84.81l-1.21,6.66Z"/>
        <path class="cls-3" d="M1966.4,493.13c3.63-33.92,4.24-75.11,4.24-105.4v-108.43c0-30.29-.6-69.66-4.24-103.58,21.2,0,46.04-2.42,67.23-7.27l1.82,56.94.6.6c49.67-44.82,111.46-66.03,182.33-59.36-3.64,21.81-6.06,43.61-6.06,65.42-58.15-11.51-132.05,1.82-176.28,47.25v108.43c0,30.29,0,71.48,3.64,105.4-12.72-1.21-24.84-1.82-36.95-1.82s-24.23.6-36.34,1.82Z"/>
        <path class="cls-4" d="M2365.6,91.52c0,18.78-11.51,34.53-43.62,34.53s-43.61-15.75-43.61-34.53,12.11-35.14,43.61-35.14,43.62,15.75,43.62,35.14ZM2289.27,387.73c0,30.29,0,71.48-3.63,105.4,12.11-1.21,24.23-1.82,36.34-1.82s24.23.6,36.95,1.82c-3.64-33.92-4.24-75.11-4.24-105.4v-108.43c0-32.1,1.21-75.11,4.24-110.85-21.2,4.85-52.09,7.27-73.3,7.27,3.63,33.92,3.63,73.3,3.63,103.58v108.43Z"/>
        <path class="cls-2" d="M2891.99,491.31c-24.23,6.06-41.19,9.08-57.55,9.08-60.57,0-66.63-31.5-67.24-65.42-30.89,38.16-104.19,65.42-172.64,65.42-93.29,0-158.1-39.37-158.1-112.67,0-79.35,82.99-99.95,161.13-99.95,53.91,0,126.6,11.51,165.98,23.63-1.21-50.89-37.56-86.63-141.14-86.63-69.66,0-126.61,16.36-141.75,24.84-5.45-21.2-12.12-41.8-21.2-62.4,18.17-6.66,85.41-23.02,162.95-23.02,152.65,0,207.17,64.21,207.17,149.62v89.65c0,23.62,5.45,36.34,32.1,36.34,8.48,0,20.6-1.82,33.92-5.45-1.82,13.33-4.24,43.62-3.64,56.94ZM2503.7,383.49c0,41.8,44.82,61.18,102.37,61.18,69.66,0,145.99-32.11,158.71-72.69v-30.9c-18.78-5.45-153.86-9.08-170.22-9.08-43.01,0-90.86,10.91-90.86,51.49Z"/>
      </g>
    </g>
  </g>
</svg>